<?xml version="1.0" encoding="utf-8" standalone="no"?>
<!DOCTYPE svg PUBLIC "-//W3C//DTD SVG 1.1//EN"
  "http://www.w3.org/Graphics/SVG/1.1/DTD/svg11.dtd">
<svg height="940.32pt" version="1.1" viewBox="0 0 1843.2 940.32" width="1843.2pt" xmlns="http://www.w3.org/2000/svg" xmlns:xlink="http://www.w3.org/1999/xlink">
 <metadata>
  <rdf:RDF xmlns:cc="http://creativecommons.org/ns#" xmlns:dc="http://purl.org/dc/elements/1.1/" xmlns:rdf="http://www.w3.org/1999/02/22-rdf-syntax-ns#">
   <cc:Work>
    <dc:type rdf:resource="http://purl.org/dc/dcmitype/StillImage"/>
    <dc:date>2021-05-09T16:13:52.264132</dc:date>
    <dc:format>image/svg+xml</dc:format>
    <dc:creator>
     <cc:Agent>
      <dc:title>Matplotlib v3.4.2, https://matplotlib.org/</dc:title>
     </cc:Agent>
    </dc:creator>
   </cc:Work>
  </rdf:RDF>
 </metadata>
 <defs>
  <style type="text/css">*{stroke-linecap:butt;stroke-linejoin:round;}</style>
 </defs>
 <g id="figure_1">
  <g id="patch_1">
   <path d="M 0 940.32 
L 1843.2 940.32 
L 1843.2 0 
L 0 0 
z
" style="fill:#ffffff;"/>
  </g>
  <g id="axes_1">
   <g id="patch_2">
    <path d="M 230.4 836.8848 
L 1658.88 836.8848 
L 1658.88 112.8384 
L 230.4 112.8384 
z
" style="fill:#ffffff;"/>
   </g>
   <g id="matplotlib.axis_1">
    <g id="xtick_1">
     <g id="line2d_1">
      <defs>
       <path d="M 0 0 
L 0 3.5 
" id="meecd113511" style="stroke:#000000;stroke-width:0.8;"/>
      </defs>
      <g>
       <use style="stroke:#000000;stroke-width:0.8;" x="387.296621" xlink:href="#meecd113511" y="474.8616"/>
      </g>
     </g>
     <g id="text_1">
      <!-- −7.5 -->
      <g transform="translate(375.155215 489.460037)scale(0.1 -0.1)">
       <defs>
        <path d="M 678 2272 
L 4684 2272 
L 4684 1741 
L 678 1741 
L 678 2272 
z
" id="DejaVuSans-2212" transform="scale(0.015625)"/>
        <path d="M 525 4666 
L 3525 4666 
L 3525 4397 
L 1831 0 
L 1172 0 
L 2766 4134 
L 525 4134 
L 525 4666 
z
" id="DejaVuSans-37" transform="scale(0.015625)"/>
        <path d="M 684 794 
L 1344 794 
L 1344 0 
L 684 0 
L 684 794 
z
" id="DejaVuSans-2e" transform="scale(0.015625)"/>
        <path d="M 691 4666 
L 3169 4666 
L 3169 4134 
L 1269 4134 
L 1269 2991 
Q 1406 3038 1543 3061 
Q 1681 3084 1819 3084 
Q 2600 3084 3056 2656 
Q 3513 2228 3513 1497 
Q 3513 744 3044 326 
Q 2575 -91 1722 -91 
Q 1428 -91 1123 -41 
Q 819 9 494 109 
L 494 744 
Q 775 591 1075 516 
Q 1375 441 1709 441 
Q 2250 441 2565 725 
Q 2881 1009 2881 1497 
Q 2881 1984 2565 2268 
Q 2250 2553 1709 2553 
Q 1456 2553 1204 2497 
Q 953 2441 691 2322 
L 691 4666 
z
" id="DejaVuSans-35" transform="scale(0.015625)"/>
       </defs>
       <use xlink:href="#DejaVuSans-2212"/>
       <use x="83.789062" xlink:href="#DejaVuSans-37"/>
       <use x="147.412109" xlink:href="#DejaVuSans-2e"/>
       <use x="179.199219" xlink:href="#DejaVuSans-35"/>
      </g>
     </g>
    </g>
    <g id="xtick_2">
     <g id="line2d_2">
      <g>
       <use style="stroke:#000000;stroke-width:0.8;" x="573.077747" xlink:href="#meecd113511" y="474.8616"/>
      </g>
     </g>
     <g id="text_2">
      <!-- −5.0 -->
      <g transform="translate(560.936341 489.460037)scale(0.1 -0.1)">
       <defs>
        <path d="M 2034 4250 
Q 1547 4250 1301 3770 
Q 1056 3291 1056 2328 
Q 1056 1369 1301 889 
Q 1547 409 2034 409 
Q 2525 409 2770 889 
Q 3016 1369 3016 2328 
Q 3016 3291 2770 3770 
Q 2525 4250 2034 4250 
z
M 2034 4750 
Q 2819 4750 3233 4129 
Q 3647 3509 3647 2328 
Q 3647 1150 3233 529 
Q 2819 -91 2034 -91 
Q 1250 -91 836 529 
Q 422 1150 422 2328 
Q 422 3509 836 4129 
Q 1250 4750 2034 4750 
z
" id="DejaVuSans-30" transform="scale(0.015625)"/>
       </defs>
       <use xlink:href="#DejaVuSans-2212"/>
       <use x="83.789062" xlink:href="#DejaVuSans-35"/>
       <use x="147.412109" xlink:href="#DejaVuSans-2e"/>
       <use x="179.199219" xlink:href="#DejaVuSans-30"/>
      </g>
     </g>
    </g>
    <g id="xtick_3">
     <g id="line2d_3">
      <g>
       <use style="stroke:#000000;stroke-width:0.8;" x="758.858874" xlink:href="#meecd113511" y="474.8616"/>
      </g>
     </g>
     <g id="text_3">
      <!-- −2.5 -->
      <g transform="translate(746.717467 489.460037)scale(0.1 -0.1)">
       <defs>
        <path d="M 1228 531 
L 3431 531 
L 3431 0 
L 469 0 
L 469 531 
Q 828 903 1448 1529 
Q 2069 2156 2228 2338 
Q 2531 2678 2651 2914 
Q 2772 3150 2772 3378 
Q 2772 3750 2511 3984 
Q 2250 4219 1831 4219 
Q 1534 4219 1204 4116 
Q 875 4013 500 3803 
L 500 4441 
Q 881 4594 1212 4672 
Q 1544 4750 1819 4750 
Q 2544 4750 2975 4387 
Q 3406 4025 3406 3419 
Q 3406 3131 3298 2873 
Q 3191 2616 2906 2266 
Q 2828 2175 2409 1742 
Q 1991 1309 1228 531 
z
" id="DejaVuSans-32" transform="scale(0.015625)"/>
       </defs>
       <use xlink:href="#DejaVuSans-2212"/>
       <use x="83.789062" xlink:href="#DejaVuSans-32"/>
       <use x="147.412109" xlink:href="#DejaVuSans-2e"/>
       <use x="179.199219" xlink:href="#DejaVuSans-35"/>
      </g>
     </g>
    </g>
    <g id="xtick_4">
     <g id="line2d_4">
      <g>
       <use style="stroke:#000000;stroke-width:0.8;" x="944.64" xlink:href="#meecd113511" y="474.8616"/>
      </g>
     </g>
     <g id="text_4">
      <!-- 0.0 -->
      <g transform="translate(936.688437 489.460037)scale(0.1 -0.1)">
       <use xlink:href="#DejaVuSans-30"/>
       <use x="63.623047" xlink:href="#DejaVuSans-2e"/>
       <use x="95.410156" xlink:href="#DejaVuSans-30"/>
      </g>
     </g>
    </g>
    <g id="xtick_5">
     <g id="line2d_5">
      <g>
       <use style="stroke:#000000;stroke-width:0.8;" x="1130.421126" xlink:href="#meecd113511" y="474.8616"/>
      </g>
     </g>
     <g id="text_5">
      <!-- 2.5 -->
      <g transform="translate(1122.469564 489.460037)scale(0.1 -0.1)">
       <use xlink:href="#DejaVuSans-32"/>
       <use x="63.623047" xlink:href="#DejaVuSans-2e"/>
       <use x="95.410156" xlink:href="#DejaVuSans-35"/>
      </g>
     </g>
    </g>
    <g id="xtick_6">
     <g id="line2d_6">
      <g>
       <use style="stroke:#000000;stroke-width:0.8;" x="1316.202253" xlink:href="#meecd113511" y="474.8616"/>
      </g>
     </g>
     <g id="text_6">
      <!-- 5.0 -->
      <g transform="translate(1308.25069 489.460037)scale(0.1 -0.1)">
       <use xlink:href="#DejaVuSans-35"/>
       <use x="63.623047" xlink:href="#DejaVuSans-2e"/>
       <use x="95.410156" xlink:href="#DejaVuSans-30"/>
      </g>
     </g>
    </g>
    <g id="xtick_7">
     <g id="line2d_7">
      <g>
       <use style="stroke:#000000;stroke-width:0.8;" x="1501.983379" xlink:href="#meecd113511" y="474.8616"/>
      </g>
     </g>
     <g id="text_7">
      <!-- 7.5 -->
      <g transform="translate(1494.031817 489.460037)scale(0.1 -0.1)">
       <use xlink:href="#DejaVuSans-37"/>
       <use x="63.623047" xlink:href="#DejaVuSans-2e"/>
       <use x="95.410156" xlink:href="#DejaVuSans-35"/>
      </g>
     </g>
    </g>
   </g>
   <g id="matplotlib.axis_2">
    <g id="ytick_1">
     <g id="line2d_8">
      <defs>
       <path d="M 0 0 
L -3.5 0 
" id="m90710ef6c1" style="stroke:#000000;stroke-width:0.8;"/>
      </defs>
      <g>
       <use style="stroke:#000000;stroke-width:0.8;" x="944.64" xlink:href="#m90710ef6c1" y="797.668772"/>
      </g>
     </g>
     <g id="text_8">
      <!-- −1.00 -->
      <g transform="translate(906.994687 801.467991)scale(0.1 -0.1)">
       <defs>
        <path d="M 794 531 
L 1825 531 
L 1825 4091 
L 703 3866 
L 703 4441 
L 1819 4666 
L 2450 4666 
L 2450 531 
L 3481 531 
L 3481 0 
L 794 0 
L 794 531 
z
" id="DejaVuSans-31" transform="scale(0.015625)"/>
       </defs>
       <use xlink:href="#DejaVuSans-2212"/>
       <use x="83.789062" xlink:href="#DejaVuSans-31"/>
       <use x="147.412109" xlink:href="#DejaVuSans-2e"/>
       <use x="179.199219" xlink:href="#DejaVuSans-30"/>
       <use x="242.822266" xlink:href="#DejaVuSans-30"/>
      </g>
     </g>
    </g>
    <g id="ytick_2">
     <g id="line2d_9">
      <g>
       <use style="stroke:#000000;stroke-width:0.8;" x="944.64" xlink:href="#m90710ef6c1" y="716.966979"/>
      </g>
     </g>
     <g id="text_9">
      <!-- −0.75 -->
      <g transform="translate(906.994687 720.766198)scale(0.1 -0.1)">
       <use xlink:href="#DejaVuSans-2212"/>
       <use x="83.789062" xlink:href="#DejaVuSans-30"/>
       <use x="147.412109" xlink:href="#DejaVuSans-2e"/>
       <use x="179.199219" xlink:href="#DejaVuSans-37"/>
       <use x="242.822266" xlink:href="#DejaVuSans-35"/>
      </g>
     </g>
    </g>
    <g id="ytick_3">
     <g id="line2d_10">
      <g>
       <use style="stroke:#000000;stroke-width:0.8;" x="944.64" xlink:href="#m90710ef6c1" y="636.265186"/>
      </g>
     </g>
     <g id="text_10">
      <!-- −0.50 -->
      <g transform="translate(906.994687 640.064405)scale(0.1 -0.1)">
       <use xlink:href="#DejaVuSans-2212"/>
       <use x="83.789062" xlink:href="#DejaVuSans-30"/>
       <use x="147.412109" xlink:href="#DejaVuSans-2e"/>
       <use x="179.199219" xlink:href="#DejaVuSans-35"/>
       <use x="242.822266" xlink:href="#DejaVuSans-30"/>
      </g>
     </g>
    </g>
    <g id="ytick_4">
     <g id="line2d_11">
      <g>
       <use style="stroke:#000000;stroke-width:0.8;" x="944.64" xlink:href="#m90710ef6c1" y="555.563393"/>
      </g>
     </g>
     <g id="text_11">
      <!-- −0.25 -->
      <g transform="translate(906.994687 559.362612)scale(0.1 -0.1)">
       <use xlink:href="#DejaVuSans-2212"/>
       <use x="83.789062" xlink:href="#DejaVuSans-30"/>
       <use x="147.412109" xlink:href="#DejaVuSans-2e"/>
       <use x="179.199219" xlink:href="#DejaVuSans-32"/>
       <use x="242.822266" xlink:href="#DejaVuSans-35"/>
      </g>
     </g>
    </g>
    <g id="ytick_5">
     <g id="line2d_12">
      <g>
       <use style="stroke:#000000;stroke-width:0.8;" x="944.64" xlink:href="#m90710ef6c1" y="474.8616"/>
      </g>
     </g>
     <g id="text_12">
      <!-- 0.00 -->
      <g transform="translate(915.374375 478.660819)scale(0.1 -0.1)">
       <use xlink:href="#DejaVuSans-30"/>
       <use x="63.623047" xlink:href="#DejaVuSans-2e"/>
       <use x="95.410156" xlink:href="#DejaVuSans-30"/>
       <use x="159.033203" xlink:href="#DejaVuSans-30"/>
      </g>
     </g>
    </g>
    <g id="ytick_6">
     <g id="line2d_13">
      <g>
       <use style="stroke:#000000;stroke-width:0.8;" x="944.64" xlink:href="#m90710ef6c1" y="394.159807"/>
      </g>
     </g>
     <g id="text_13">
      <!-- 0.25 -->
      <g transform="translate(915.374375 397.959026)scale(0.1 -0.1)">
       <use xlink:href="#DejaVuSans-30"/>
       <use x="63.623047" xlink:href="#DejaVuSans-2e"/>
       <use x="95.410156" xlink:href="#DejaVuSans-32"/>
       <use x="159.033203" xlink:href="#DejaVuSans-35"/>
      </g>
     </g>
    </g>
    <g id="ytick_7">
     <g id="line2d_14">
      <g>
       <use style="stroke:#000000;stroke-width:0.8;" x="944.64" xlink:href="#m90710ef6c1" y="313.458014"/>
      </g>
     </g>
     <g id="text_14">
      <!-- 0.50 -->
      <g transform="translate(915.374375 317.257233)scale(0.1 -0.1)">
       <use xlink:href="#DejaVuSans-30"/>
       <use x="63.623047" xlink:href="#DejaVuSans-2e"/>
       <use x="95.410156" xlink:href="#DejaVuSans-35"/>
       <use x="159.033203" xlink:href="#DejaVuSans-30"/>
      </g>
     </g>
    </g>
    <g id="ytick_8">
     <g id="line2d_15">
      <g>
       <use style="stroke:#000000;stroke-width:0.8;" x="944.64" xlink:href="#m90710ef6c1" y="232.756221"/>
      </g>
     </g>
     <g id="text_15">
      <!-- 0.75 -->
      <g transform="translate(915.374375 236.555439)scale(0.1 -0.1)">
       <use xlink:href="#DejaVuSans-30"/>
       <use x="63.623047" xlink:href="#DejaVuSans-2e"/>
       <use x="95.410156" xlink:href="#DejaVuSans-37"/>
       <use x="159.033203" xlink:href="#DejaVuSans-35"/>
      </g>
     </g>
    </g>
    <g id="ytick_9">
     <g id="line2d_16">
      <g>
       <use style="stroke:#000000;stroke-width:0.8;" x="944.64" xlink:href="#m90710ef6c1" y="152.054428"/>
      </g>
     </g>
     <g id="text_16">
      <!-- 1.00 -->
      <g transform="translate(915.374375 155.853646)scale(0.1 -0.1)">
       <use xlink:href="#DejaVuSans-31"/>
       <use x="63.623047" xlink:href="#DejaVuSans-2e"/>
       <use x="95.410156" xlink:href="#DejaVuSans-30"/>
       <use x="159.033203" xlink:href="#DejaVuSans-30"/>
      </g>
     </g>
    </g>
   </g>
   <g id="line2d_17">
    <path clip-path="url(#p63e8a8d69c)" d="M 295.330909 679.648305 
L 299.860266 694.467722 
L 304.136302 707.710794 
L 308.189418 719.552615 
L 312.044944 730.142283 
L 315.71808 739.592361 
L 319.224025 748.009442 
L 322.572911 755.48208 
L 325.779939 762.104259 
L 328.850174 767.942977 
L 331.788682 773.062841 
L 334.605598 777.533272 
L 337.311052 781.417503 
L 339.905046 784.76026 
L 342.397712 787.616757 
L 344.794116 790.031238 
L 347.104392 792.048702 
L 349.333606 793.704803 
L 351.486823 795.032068 
L 353.579244 796.064358 
L 355.621001 796.826194 
L 357.61716 797.336066 
L 359.587988 797.611211 
L 361.543616 797.659859 
L 363.494178 797.485709 
L 365.454872 797.086657 
L 367.440899 796.453784 
L 369.46239 795.573742 
L 371.529479 794.428461 
L 373.652298 792.994976 
L 375.840981 791.245238 
L 378.105659 789.145882 
L 380.451399 786.663687 
L 382.888335 783.756023 
L 385.421532 780.38146 
L 388.056057 776.495404 
L 390.802043 772.041554 
L 393.659489 766.97624 
L 396.638529 761.235696 
L 399.749295 754.750346 
L 402.996854 747.456796 
L 406.391338 739.27713 
L 409.94288 730.128809 
L 413.661614 719.925445 
L 417.567804 708.547497 
L 421.67665 695.883231 
L 426.01855 681.76739 
L 430.618836 666.042185 
L 435.528172 648.45423 
L 440.807354 628.698422 
L 446.557712 606.299826 
L 452.951502 580.477404 
L 460.323105 549.748553 
L 469.614872 510.004606 
L 498.473054 385.883882 
L 505.768662 355.897403 
L 512.096588 330.806048 
L 517.801348 309.075468 
L 523.045066 289.959486 
L 527.924004 272.99787 
L 532.504025 257.865647 
L 536.820592 244.357157 
L 540.914239 232.26392 
L 544.80523 221.451065 
L 548.508764 211.803913 
L 552.045107 203.201616 
L 555.424392 195.555823 
L 558.656752 188.78261 
L 561.752319 182.80318 
L 564.716159 177.552895 
L 567.558407 172.962069 
L 570.284127 168.974174 
L 572.898386 165.535878 
L 575.411318 162.59161 
L 577.827988 160.096885 
L 580.153463 158.010527 
L 582.392809 156.294652 
L 584.561226 154.908773 
L 586.663779 153.8251 
L 588.710603 153.016996 
L 590.716895 152.461837 
L 592.692789 152.144756 
L 594.648417 152.055569 
L 596.598979 152.18929 
L 598.554607 152.546521 
L 600.535567 153.13594 
L 602.546925 153.968296 
L 604.603882 155.062635 
L 606.716568 156.441668 
L 608.895117 158.133183 
L 611.144597 160.165377 
L 613.475138 162.574886 
L 615.896874 165.404027 
L 618.414872 168.694049 
L 621.034198 172.489393 
L 623.759918 176.837647 
L 626.597099 181.789451 
L 629.555873 187.408351 
L 632.641307 193.752946 
L 635.863534 200.895875 
L 639.22762 208.902571 
L 642.748764 217.866487 
L 646.437099 227.87429 
L 650.307824 239.030699 
L 654.381205 251.461414 
L 658.677508 265.2988 
L 663.22713 280.714452 
L 668.075669 297.942241 
L 673.283922 317.284798 
L 678.943085 339.175831 
L 685.200082 364.289616 
L 692.35383 393.951915 
L 701.154157 431.439791 
L 717.989785 504.39898 
L 728.958529 551.35314 
L 736.760776 583.798535 
L 743.382554 610.40757 
L 749.284903 633.225305 
L 754.680613 653.214299 
L 759.681144 670.9024 
L 764.362492 686.65877 
L 768.770255 700.727379 
L 772.939898 713.305567 
L 776.896752 724.548428 
L 780.666149 734.600869 
L 784.258223 743.559043 
L 787.693238 751.538681 
L 790.976261 758.613052 
L 794.117426 764.863565 
L 797.126864 770.366154 
L 800.009642 775.18286 
L 802.775894 779.380094 
L 805.430684 783.01152 
L 807.979081 786.127553 
L 810.426149 788.775255 
L 812.782022 791.002744 
L 815.051767 792.848325 
L 817.245516 794.350235 
L 819.368335 795.53855 
L 821.435424 796.444227 
L 823.456915 797.089296 
L 825.437875 797.490129 
L 827.39857 797.661119 
L 829.349132 797.608265 
L 831.30476 797.332058 
L 833.275587 796.827782 
L 835.276813 796.084021 
L 837.31857 795.085135 
L 839.410991 793.810679 
L 841.564208 792.235226 
L 843.788355 790.328146 
L 846.088498 788.058711 
L 848.47477 785.387233 
L 850.957303 782.26823 
L 853.536098 778.665092 
L 856.221287 774.524602 
L 859.017937 769.796421 
L 861.931113 764.427206 
L 864.97095 758.350304 
L 868.142513 751.504662 
L 871.455935 743.814905 
L 874.921348 735.200715 
L 878.548887 725.577469 
L 882.353749 714.842417 
L 886.351134 702.887191 
L 890.561307 689.58301 
L 895.014668 674.761413 
L 899.751747 658.209108 
L 904.823207 639.664731 
L 910.305046 618.759568 
L 916.323922 594.909342 
L 923.107824 567.09229 
L 931.163391 533.082523 
L 942.486782 484.213691 
L 960.548478 406.283101 
L 968.725638 372.057786 
L 975.534872 344.489583 
L 981.563882 320.986081 
L 987.050787 300.471854 
L 992.127314 282.335867 
L 996.869459 266.204171 
L 1001.327886 251.811164 
L 1005.543126 238.94055 
L 1009.545577 227.421418 
L 1013.350439 217.135819 
L 1016.977978 207.958206 
L 1020.443391 199.784353 
L 1023.756813 192.528086 
L 1026.928376 186.10798 
L 1029.963146 180.456976 
L 1032.871256 175.502325 
L 1035.66284 171.177324 
L 1038.337896 167.434827 
L 1040.906558 164.215999 
L 1043.373892 161.473551 
L 1045.750031 159.158961 
L 1048.040041 157.233654 
L 1050.248989 155.66226 
L 1052.387007 154.409892 
L 1054.464229 153.447158 
L 1056.490787 152.749907 
L 1058.481879 152.298143 
L 1060.44764 152.079278 
L 1062.398202 152.085343 
L 1064.348764 152.313777 
L 1066.314525 152.768804 
L 1068.305618 153.459438 
L 1070.337242 154.401937 
L 1072.41953 155.616469 
L 1074.557549 157.124291 
L 1076.766496 158.958339 
L 1079.05144 161.149139 
L 1081.422513 163.736036 
L 1083.88478 166.75761 
L 1086.443309 170.255577 
L 1089.103166 174.274785 
L 1091.874484 178.871926 
L 1094.762329 184.100187 
L 1097.776834 190.025977 
L 1100.917998 196.699189 
L 1104.201021 204.204666 
L 1107.63097 212.609944 
L 1111.223044 222.011019 
L 1114.987375 232.496366 
L 1118.939162 244.172346 
L 1123.103739 257.182201 
L 1127.506435 271.678258 
L 1132.177651 287.83678 
L 1137.173115 305.932683 
L 1142.558693 326.294085 
L 1148.450909 349.460472 
L 1155.042288 376.302506 
L 1162.75334 408.672165 
L 1172.941859 452.475437 
L 1195.710235 550.647365 
L 1203.54288 583.238991 
L 1210.179857 609.928014 
L 1216.092339 632.803217 
L 1221.493115 652.828893 
L 1226.498713 670.552521 
L 1231.185128 686.343026 
L 1235.597957 700.444185 
L 1239.772666 713.053207 
L 1243.734586 724.325095 
L 1247.50905 734.404713 
L 1251.10619 743.388161 
L 1254.541205 751.379828 
L 1257.829295 758.476525 
L 1260.975526 764.747469 
L 1263.984964 770.259757 
L 1266.872809 775.094003 
L 1269.63906 779.299679 
L 1272.293851 782.939313 
L 1274.842247 786.063311 
L 1277.294382 788.723878 
L 1279.650255 790.958175 
L 1281.925066 792.814162 
L 1284.118815 794.321847 
L 1286.246701 795.518309 
L 1288.31379 796.428858 
L 1290.335281 797.078703 
L 1292.321307 797.484967 
L 1294.282002 797.660022 
L 1296.232564 797.611211 
L 1298.188192 797.339056 
L 1300.159019 796.838858 
L 1302.160245 796.099231 
L 1304.202002 795.104551 
L 1306.294423 793.83439 
L 1308.44764 792.263337 
L 1310.671788 790.360778 
L 1312.971931 788.095986 
L 1315.358202 785.429288 
L 1317.835669 782.321918 
L 1320.414464 778.724565 
L 1323.099653 774.590023 
L 1325.896302 769.867946 
L 1328.809479 764.504981 
L 1331.849316 758.434474 
L 1335.020878 751.595353 
L 1338.3343 743.912232 
L 1341.794648 735.317778 
L 1345.41712 725.716041 
L 1349.216915 715.004266 
L 1353.209234 703.074051 
L 1357.419408 689.780139 
L 1361.872768 674.968713 
L 1366.60478 658.444514 
L 1371.671175 639.929591 
L 1377.147947 619.055001 
L 1383.156691 595.256565 
L 1389.925393 567.514018 
L 1397.955628 533.623617 
L 1409.187824 485.159599 
L 1427.538304 405.982055 
L 1435.700266 371.828333 
L 1442.504433 344.288282 
L 1448.528376 320.811991 
L 1454.015281 300.305208 
L 1459.086742 282.194574 
L 1463.82382 266.08665 
L 1468.282247 251.699827 
L 1472.497487 238.835428 
L 1476.494872 227.336637 
L 1480.299734 217.056331 
L 1483.927273 207.883957 
L 1487.392686 199.715275 
L 1490.706108 192.464092 
L 1493.877671 186.048973 
L 1496.912441 180.402841 
L 1499.820552 175.452944 
L 1502.607068 171.140031 
L 1505.282125 167.401284 
L 1507.850787 164.186098 
L 1510.318121 161.447182 
L 1512.694259 159.13602 
L 1514.979203 157.217961 
L 1517.188151 155.649148 
L 1519.32617 154.399289 
L 1521.403391 153.439002 
L 1523.429949 152.744144 
L 1525.421042 152.294735 
L 1527.386803 152.078197 
L 1529.337365 152.086573 
L 1531.287926 152.317316 
L 1533.253687 152.77467 
L 1535.24478 153.467654 
L 1537.276404 154.412546 
L 1539.358693 155.629522 
L 1541.496711 157.139843 
L 1543.705659 158.97646 
L 1545.990603 161.169899 
L 1548.361675 163.759515 
L 1550.823943 166.783886 
L 1553.382472 170.28473 
L 1556.047395 174.314922 
L 1558.818713 178.915855 
L 1561.706558 184.148003 
L 1564.721062 190.077772 
L 1567.867293 196.766215 
L 1571.150317 204.276651 
L 1574.585332 212.699801 
L 1578.177406 222.106817 
L 1581.941736 232.598149 
L 1585.89859 244.295535 
L 1590.063166 257.312242 
L 1593.949091 270.074895 
L 1593.949091 270.074895 
" style="fill:none;stroke:#1f77b4;stroke-linecap:square;stroke-width:1.5;"/>
   </g>
   <g id="line2d_18">
    <path clip-path="url(#p63e8a8d69c)" d="M 295.330909 781.276221 
L 815.112564 781.276221 
L 815.234157 788.842014 
L 815.239224 788.842014 
L 815.254423 783.798152 
L 815.345618 788.842014 
L 815.365884 788.842014 
L 815.381083 791.363945 
L 815.386149 783.798152 
L 815.472278 788.842014 
L 815.507743 788.842014 
L 815.528008 786.320083 
L 815.619203 791.363945 
L 815.649602 791.363945 
L 815.669867 793.885876 
L 815.674934 783.798152 
L 815.745863 788.842014 
L 815.831992 786.320083 
L 815.80666 791.363945 
L 815.852257 788.842014 
L 815.872523 788.842014 
L 815.958652 793.885876 
L 815.963718 786.320083 
L 815.978917 788.842014 
L 816.014382 788.842014 
L 816.100511 793.885876 
L 816.125843 791.363945 
L 816.156241 791.363945 
L 816.252503 796.407807 
L 816.277835 783.798152 
L 816.363963 788.842014 
L 816.389295 788.842014 
L 816.409561 786.320083 
L 816.500756 791.363945 
L 816.531154 791.363945 
L 816.546353 793.885876 
L 816.55142 786.320083 
L 816.637549 791.363945 
L 816.673013 791.363945 
L 816.693279 788.842014 
L 816.784474 793.885876 
L 816.814872 793.885876 
L 816.835138 796.407807 
L 816.840204 786.320083 
L 816.911134 791.363945 
L 816.997263 788.842014 
L 816.971931 793.885876 
L 817.017528 791.363945 
L 817.037794 791.363945 
L 817.123922 796.407807 
L 817.128989 788.842014 
L 817.144188 791.363945 
L 817.179653 791.363945 
L 817.265781 796.407807 
L 817.291113 793.885876 
L 817.321512 793.885876 
L 817.412707 798.929738 
L 817.432972 783.798152 
L 817.524168 788.842014 
L 817.544433 788.842014 
L 817.564699 786.320083 
L 817.655894 791.363945 
L 817.686292 791.363945 
L 817.701491 793.885876 
L 817.706558 786.320083 
L 817.792686 791.363945 
L 817.828151 791.363945 
L 817.848417 788.842014 
L 817.939612 793.885876 
L 817.97001 793.885876 
L 817.990276 796.407807 
L 817.995342 786.320083 
L 818.066272 791.363945 
L 818.1524 788.842014 
L 818.127068 793.885876 
L 818.172666 791.363945 
L 818.192932 791.363945 
L 818.27906 796.407807 
L 818.284127 788.842014 
L 818.299326 791.363945 
L 818.334791 791.363945 
L 818.420919 796.407807 
L 818.446251 793.885876 
L 818.47665 793.885876 
L 818.572911 798.929738 
L 818.598243 786.320083 
L 818.684372 791.363945 
L 818.709704 791.363945 
L 818.729969 788.842014 
L 818.821164 793.885876 
L 818.851563 793.885876 
L 818.866762 796.407807 
L 818.871828 788.842014 
L 818.957957 793.885876 
L 818.993422 793.885876 
L 819.013687 791.363945 
L 819.104883 796.407807 
L 819.135281 796.407807 
L 819.155546 798.929738 
L 819.160613 788.842014 
L 819.231542 793.885876 
L 819.317671 791.363945 
L 819.292339 796.407807 
L 819.337937 793.885876 
L 819.358202 793.885876 
L 819.444331 798.929738 
L 819.449397 791.363945 
L 819.464597 793.885876 
L 819.500061 793.885876 
L 819.58619 798.929738 
L 819.611522 796.407807 
L 819.64192 796.407807 
L 819.733115 801.451669 
L 819.753381 783.798152 
L 819.844576 788.842014 
L 819.864842 788.842014 
L 819.885107 786.320083 
L 819.976302 791.363945 
L 820.006701 791.363945 
L 820.0219 793.885876 
L 820.026966 786.320083 
L 820.113095 791.363945 
L 820.14856 791.363945 
L 820.168825 788.842014 
L 820.26002 793.885876 
L 820.290419 793.885876 
L 820.310684 796.407807 
L 820.315751 786.320083 
L 820.38668 791.363945 
L 820.472809 788.842014 
L 820.447477 793.885876 
L 820.493075 791.363945 
L 820.51334 791.363945 
L 820.599469 796.407807 
L 820.604535 788.842014 
L 820.619734 791.363945 
L 820.655199 791.363945 
L 820.741328 796.407807 
L 820.76666 793.885876 
L 820.797058 793.885876 
L 820.89332 798.929738 
L 820.918652 786.320083 
L 821.00478 791.363945 
L 821.030112 791.363945 
L 821.050378 788.842014 
L 821.141573 793.885876 
L 821.171971 793.885876 
L 821.187171 796.407807 
L 821.192237 788.842014 
L 821.278366 793.885876 
L 821.31383 793.885876 
L 821.334096 791.363945 
L 821.425291 796.407807 
L 821.455689 796.407807 
L 821.475955 798.929738 
L 821.481021 788.842014 
L 821.551951 793.885876 
L 821.63808 791.363945 
L 821.612748 796.407807 
L 821.658345 793.885876 
L 821.678611 793.885876 
L 821.76474 798.929738 
L 821.769806 791.363945 
L 821.785005 793.885876 
L 821.82047 793.885876 
L 821.906599 798.929738 
L 821.931931 796.407807 
L 821.962329 796.407807 
L 822.053524 801.451669 
L 822.07379 786.320083 
L 822.164985 791.363945 
L 822.18525 791.363945 
L 822.205516 788.842014 
L 822.296711 793.885876 
L 822.327109 793.885876 
L 822.342308 796.407807 
L 822.347375 788.842014 
L 822.433504 793.885876 
L 822.468968 793.885876 
L 822.489234 791.363945 
L 822.580429 796.407807 
L 822.610827 796.407807 
L 822.631093 798.929738 
L 822.636159 788.842014 
L 822.707089 793.885876 
L 822.793218 791.363945 
L 822.767886 796.407807 
L 822.813483 793.885876 
L 822.833749 793.885876 
L 822.919877 798.929738 
L 822.924944 791.363945 
L 822.940143 793.885876 
L 822.975608 793.885876 
L 823.061736 798.929738 
L 823.087068 796.407807 
L 823.117467 796.407807 
L 823.213728 801.451669 
L 823.23906 788.842014 
L 823.325189 793.885876 
L 823.350521 793.885876 
L 823.370787 791.363945 
L 823.461982 796.407807 
L 823.49238 796.407807 
L 823.507579 798.929738 
L 823.512646 791.363945 
L 823.598774 796.407807 
L 823.634239 796.407807 
L 823.654505 793.885876 
L 823.7457 798.929738 
L 823.776098 798.929738 
L 823.796364 801.451669 
L 823.80143 791.363945 
L 823.87236 796.407807 
L 823.958488 793.885876 
L 823.933156 798.929738 
L 823.978754 796.407807 
L 823.999019 796.407807 
L 824.085148 801.451669 
L 824.090215 793.885876 
L 824.105414 796.407807 
L 824.140878 796.407807 
L 824.227007 801.451669 
L 824.252339 798.929738 
L 824.282737 798.929738 
L 824.373933 803.9736 
L 824.394198 785.059117 
L 824.485393 790.102979 
L 824.505659 790.102979 
L 824.525924 787.581048 
L 824.61712 792.62491 
L 824.647518 792.62491 
L 824.662717 795.146841 
L 824.667783 787.581048 
L 824.753912 792.62491 
L 824.789377 792.62491 
L 824.809642 790.102979 
L 824.900838 795.146841 
L 824.931236 795.146841 
L 824.951502 797.668772 
L 824.956568 787.581048 
L 825.027497 792.62491 
L 825.113626 790.102979 
L 825.088294 795.146841 
L 825.133892 792.62491 
L 825.154157 792.62491 
L 825.240286 797.668772 
L 825.245352 790.102979 
L 825.260552 792.62491 
L 825.296016 792.62491 
L 825.382145 797.668772 
L 825.407477 795.146841 
L 825.437875 795.146841 
L 825.534137 800.190703 
L 825.559469 787.581048 
L 825.645598 792.62491 
L 825.67093 792.62491 
L 825.691195 790.102979 
L 825.78239 795.146841 
L 825.812789 795.146841 
L 825.827988 797.668772 
L 825.833054 790.102979 
L 825.919183 795.146841 
L 825.954648 795.146841 
L 825.974913 792.62491 
L 826.066108 797.668772 
L 826.096507 797.668772 
L 826.116772 800.190703 
L 826.121839 790.102979 
L 826.192768 795.146841 
L 826.278897 792.62491 
L 826.253565 797.668772 
L 826.299162 795.146841 
L 826.319428 795.146841 
L 826.405557 800.190703 
L 826.410623 792.62491 
L 826.425822 795.146841 
L 826.461287 795.146841 
L 826.547416 800.190703 
L 826.572748 797.668772 
L 826.603146 797.668772 
L 826.694341 802.712634 
L 826.714607 787.581048 
L 826.805802 792.62491 
L 826.826067 792.62491 
L 826.846333 790.102979 
L 826.937528 795.146841 
L 826.967926 795.146841 
L 826.983126 797.668772 
L 826.988192 790.102979 
L 827.074321 795.146841 
L 827.109785 795.146841 
L 827.130051 792.62491 
L 827.221246 797.668772 
L 827.231379 797.668772 
L 827.27191 798.929738 
L 827.276977 790.102979 
L 827.317508 792.62491 
L 827.332707 792.62491 
L 827.418836 797.668772 
L 827.444168 795.146841 
L 827.474566 795.146841 
L 827.560695 798.929738 
L 827.565761 792.62491 
L 827.58096 795.146841 
L 827.616425 795.146841 
L 827.732952 798.929738 
L 827.738018 798.929738 
L 827.773483 800.190703 
L 827.844413 798.929738 
L 827.854545 798.929738 
L 827.879877 792.62491 
L 827.966006 797.668772 
L 827.971073 797.668772 
L 828.077467 800.190703 
L 828.011604 796.407807 
L 828.082533 798.929738 
L 828.148396 798.929738 
L 828.163596 795.146841 
L 828.259857 797.668772 
L 828.437181 797.668772 
L 828.457446 795.146841 
L 828.482778 798.929738 
L 828.543575 797.668772 
L 829.01475 797.668772 
L 829.12621 795.146841 
L 833.615036 795.146841 
L 833.726496 793.885876 
L 838.215322 793.885876 
L 838.326782 791.363945 
L 842.856139 791.363945 
L 842.9676 787.581048 
L 847.496956 787.581048 
L 847.608417 783.798152 
L 849.817365 783.798152 
L 849.928825 781.276221 
L 851.81859 781.276221 
L 851.930051 774.971393 
L 853.819816 774.971393 
L 853.931277 772.449462 
L 856.140225 772.449462 
L 856.251685 769.927531 
L 858.460633 769.927531 
L 858.572094 767.4056 
L 860.781042 767.4056 
L 860.892503 761.100772 
L 863.10145 761.100772 
L 863.212911 758.578841 
L 865.421859 758.578841 
L 865.53332 754.795945 
L 867.742268 754.795945 
L 867.853728 751.013048 
L 868.902472 751.013048 
L 869.013933 748.491117 
L 870.022145 748.491117 
L 870.133606 744.708221 
L 871.141818 744.708221 
L 871.253279 742.18629 
L 872.302022 742.18629 
L 872.413483 739.664359 
L 873.462227 739.664359 
L 873.573687 737.142428 
L 874.622431 737.142428 
L 874.733892 734.620497 
L 875.782635 734.620497 
L 875.894096 732.098566 
L 876.94284 732.098566 
L 877.0543 729.576634 
L 878.103044 729.576634 
L 878.214505 727.054703 
L 879.263248 727.054703 
L 879.374709 720.749876 
L 880.423453 720.749876 
L 880.534913 718.227945 
L 881.583657 718.227945 
L 881.695117 715.706014 
L 882.743861 715.706014 
L 882.855322 713.184083 
L 883.904065 713.184083 
L 884.015526 708.140221 
L 885.06427 708.140221 
L 885.17573 705.61829 
L 886.224474 705.61829 
L 886.346067 699.313462 
L 887.486006 699.313462 
L 887.597467 696.791531 
L 888.64621 696.791531 
L 888.757671 691.747669 
L 889.806415 691.747669 
L 889.917875 689.225738 
L 890.966619 689.225738 
L 891.07808 686.703807 
L 892.126823 686.703807 
L 892.238284 684.181876 
L 893.287028 684.181876 
L 893.398488 676.616083 
L 894.447232 676.616083 
L 894.558693 674.094152 
L 895.607436 674.094152 
L 895.718897 669.05029 
L 896.76764 669.05029 
L 896.879101 666.528359 
L 897.927845 666.528359 
L 898.039305 661.484497 
L 899.088049 661.484497 
L 899.19951 658.962566 
L 900.248253 658.962566 
L 900.359714 653.918703 
L 901.408458 653.918703 
L 901.519918 651.396772 
L 902.528131 651.396772 
L 902.639591 643.830979 
L 903.647804 643.830979 
L 903.759265 641.309048 
L 904.808008 641.309048 
L 904.919469 636.265186 
L 905.968212 636.265186 
L 906.079673 633.743255 
L 907.128417 633.743255 
L 907.239877 628.699393 
L 908.288621 628.699393 
L 908.400082 626.177462 
L 909.448825 626.177462 
L 909.560286 621.1336 
L 910.60903 621.1336 
L 910.72049 618.611669 
L 911.769234 618.611669 
L 911.880695 609.78491 
L 912.929438 609.78491 
L 913.040899 607.262979 
L 914.089642 607.262979 
L 914.201103 602.219117 
L 915.249847 602.219117 
L 915.361307 599.697186 
L 916.410051 599.697186 
L 916.521512 592.131393 
L 917.570255 592.131393 
L 917.681716 589.609462 
L 918.73046 589.609462 
L 918.84192 584.5656 
L 919.890664 584.5656 
L 920.002125 582.043669 
L 920.731685 582.043669 
L 920.843146 571.955945 
L 921.572707 571.955945 
L 921.684168 569.434014 
L 922.732911 569.434014 
L 922.844372 564.390152 
L 923.893115 564.390152 
L 924.004576 561.868221 
L 925.05332 561.868221 
L 925.16478 554.302428 
L 926.213524 554.302428 
L 926.324985 551.780497 
L 927.373728 551.780497 
L 927.485189 546.736634 
L 928.533933 546.736634 
L 928.645393 544.214703 
L 929.694137 544.214703 
L 929.805598 534.126979 
L 930.854341 534.126979 
L 930.965802 531.605048 
L 932.014545 531.605048 
L 932.126006 526.561186 
L 933.17475 526.561186 
L 933.28621 524.039255 
L 934.334954 524.039255 
L 934.446415 517.734428 
L 935.495158 517.734428 
L 935.606619 516.473462 
L 936.077794 516.473462 
L 936.189254 513.951531 
L 936.655363 513.951531 
L 936.766823 510.168634 
L 937.232932 510.168634 
L 937.344392 507.646703 
L 937.815567 507.646703 
L 937.927028 505.124772 
L 938.398202 505.124772 
L 938.509663 502.602841 
L 938.93524 502.602841 
L 939.046701 496.298014 
L 940.054913 496.298014 
L 940.166374 493.776083 
L 941.215117 493.776083 
L 941.326578 489.993186 
L 942.375322 489.993186 
L 942.486782 486.21029 
L 942.957957 486.21029 
L 943.069418 483.688359 
L 943.535526 483.688359 
L 943.646987 479.905462 
L 944.113095 479.905462 
L 944.224556 477.383531 
L 944.64 477.383531 
L 944.751461 473.600634 
L 945.744474 473.600634 
L 945.855935 466.034841 
L 946.904678 466.034841 
L 947.016139 463.51291 
L 948.064883 463.51291 
L 948.176343 458.469048 
L 949.225087 458.469048 
L 949.336547 455.947117 
L 950.34476 455.947117 
L 950.456221 443.337462 
L 951.464433 443.337462 
L 951.575894 440.815531 
L 952.624637 440.815531 
L 952.736098 435.771669 
L 953.784842 435.771669 
L 953.896302 433.249738 
L 954.945046 433.249738 
L 955.056507 425.683945 
L 956.10525 425.683945 
L 956.216711 423.162014 
L 957.265455 423.162014 
L 957.376915 418.118152 
L 958.425659 418.118152 
L 958.53712 415.596221 
L 959.585863 415.596221 
L 959.697324 405.508497 
L 960.746067 405.508497 
L 960.857528 402.986566 
L 961.906272 402.986566 
L 962.017732 397.942703 
L 963.066476 397.942703 
L 963.177937 395.420772 
L 964.22668 395.420772 
L 964.338141 387.854979 
L 965.386885 387.854979 
L 965.498345 385.333048 
L 966.547089 385.333048 
L 966.65855 380.289186 
L 967.707293 380.289186 
L 967.818754 377.767255 
L 968.548315 377.767255 
L 968.659775 367.679531 
L 969.389336 367.679531 
L 969.500797 365.1576 
L 970.54954 365.1576 
L 970.661001 360.113738 
L 971.709745 360.113738 
L 971.821205 357.591807 
L 972.869949 357.591807 
L 972.98141 350.026014 
L 974.030153 350.026014 
L 974.141614 347.504083 
L 975.190358 347.504083 
L 975.301818 342.460221 
L 976.350562 342.460221 
L 976.462022 339.93829 
L 977.510766 339.93829 
L 977.622227 332.372497 
L 978.67097 332.372497 
L 978.782431 329.850566 
L 979.831175 329.850566 
L 979.942635 324.806703 
L 980.991379 324.806703 
L 981.10284 322.284772 
L 982.151583 322.284772 
L 982.263044 314.718979 
L 983.311788 314.718979 
L 983.423248 312.197048 
L 984.471992 312.197048 
L 984.583453 307.153186 
L 985.632196 307.153186 
L 985.743657 304.631255 
L 986.751869 304.631255 
L 986.86333 298.326428 
L 987.871542 298.326428 
L 987.983003 295.804497 
L 989.031747 295.804497 
L 989.143207 290.760634 
L 990.191951 290.760634 
L 990.303412 288.238703 
L 991.352155 288.238703 
L 991.463616 283.194841 
L 992.51236 283.194841 
L 992.62382 280.67291 
L 993.672564 280.67291 
L 993.784025 275.629048 
L 994.832768 275.629048 
L 994.944229 273.107117 
L 995.992972 273.107117 
L 996.104433 265.541324 
L 997.153177 265.541324 
L 997.264637 263.019393 
L 998.313381 263.019393 
L 998.424842 260.497462 
L 999.473585 260.497462 
L 999.585046 257.975531 
L 1000.63379 257.975531 
L 1000.74525 252.931669 
L 1001.793994 252.931669 
L 1001.905455 250.409738 
L 1002.954198 250.409738 
L 1003.070725 245.365876 
L 1004.21573 245.365876 
L 1004.327191 242.843945 
L 1005.375935 242.843945 
L 1005.487395 237.800083 
L 1006.536139 237.800083 
L 1006.6476 235.278152 
L 1007.696343 235.278152 
L 1007.807804 232.756221 
L 1008.856547 232.756221 
L 1008.968008 230.23429 
L 1010.016752 230.23429 
L 1010.128212 223.929462 
L 1011.176956 223.929462 
L 1011.288417 221.407531 
L 1012.33716 221.407531 
L 1012.448621 218.8856 
L 1013.497365 218.8856 
L 1013.608825 216.363669 
L 1014.657569 216.363669 
L 1014.76903 213.841738 
L 1015.817773 213.841738 
L 1015.929234 211.319807 
L 1016.977978 211.319807 
L 1017.089438 208.797876 
L 1018.138182 208.797876 
L 1018.249642 206.275945 
L 1019.257855 206.275945 
L 1019.369316 199.971117 
L 1020.377528 199.971117 
L 1020.488989 197.449186 
L 1021.537732 197.449186 
L 1021.649193 194.927255 
L 1022.697937 194.927255 
L 1022.809397 192.405324 
L 1023.858141 192.405324 
L 1023.969602 189.883393 
L 1026.17855 189.883393 
L 1026.29001 187.361462 
L 1028.498958 187.361462 
L 1028.610419 182.3176 
L 1030.819367 182.3176 
L 1030.930827 179.795669 
L 1033.139775 179.795669 
L 1033.251236 174.751807 
L 1035.460184 174.751807 
L 1035.571645 172.229876 
L 1037.46141 172.229876 
L 1037.57287 168.446979 
L 1039.462635 168.446979 
L 1039.574096 165.925048 
L 1041.783044 165.925048 
L 1041.894505 162.142152 
L 1046.423861 162.142152 
L 1046.535322 158.359255 
L 1051.064678 158.359255 
L 1051.176139 155.837324 
L 1055.664964 155.837324 
L 1055.776425 154.576359 
L 1060.26525 154.576359 
L 1060.376711 153.315393 
L 1061.369724 153.315393 
L 1061.410255 154.576359 
L 1061.435587 150.793462 
L 1061.476118 153.315393 
L 1061.481185 153.315393 
L 1061.536915 149.532497 
L 1061.592646 150.793462 
L 1061.607845 150.793462 
L 1061.623044 154.576359 
L 1061.719305 152.054428 
L 1061.896629 152.054428 
L 1061.916895 154.576359 
L 1061.942227 150.793462 
L 1062.003023 152.054428 
L 1062.474198 152.054428 
L 1062.585659 154.576359 
L 1067.074484 154.576359 
L 1067.185945 155.837324 
L 1071.67477 155.837324 
L 1071.786231 158.359255 
L 1076.315587 158.359255 
L 1076.427048 162.142152 
L 1080.956404 162.142152 
L 1081.067865 165.925048 
L 1083.276813 165.925048 
L 1083.388274 168.446979 
L 1085.278039 168.446979 
L 1085.389499 174.751807 
L 1087.279265 174.751807 
L 1087.390725 177.273738 
L 1089.599673 177.273738 
L 1089.711134 179.795669 
L 1091.920082 179.795669 
L 1092.031542 182.3176 
L 1094.24049 182.3176 
L 1094.351951 188.622428 
L 1096.560899 188.622428 
L 1096.67236 191.144359 
L 1098.881307 191.144359 
L 1098.992768 194.927255 
L 1101.201716 194.927255 
L 1101.313177 198.710152 
L 1102.36192 198.710152 
L 1102.473381 201.232083 
L 1103.481593 201.232083 
L 1103.593054 205.014979 
L 1104.601267 205.014979 
L 1104.712727 207.53691 
L 1105.761471 207.53691 
L 1105.872932 210.058841 
L 1106.921675 210.058841 
L 1107.033136 212.580772 
L 1108.081879 212.580772 
L 1108.19334 215.102703 
L 1109.242084 215.102703 
L 1109.353544 217.624634 
L 1110.402288 217.624634 
L 1110.513749 220.146566 
L 1111.562492 220.146566 
L 1111.673953 222.668497 
L 1112.722697 222.668497 
L 1112.834157 228.973324 
L 1113.882901 228.973324 
L 1113.994362 231.495255 
L 1115.043105 231.495255 
L 1115.154566 234.017186 
L 1116.203309 234.017186 
L 1116.31477 236.539117 
L 1117.363514 236.539117 
L 1117.474974 241.582979 
L 1118.523718 241.582979 
L 1118.635179 244.10491 
L 1119.683922 244.10491 
L 1119.805516 250.409738 
L 1120.945455 250.409738 
L 1121.056915 252.931669 
L 1122.105659 252.931669 
L 1122.21712 257.975531 
L 1123.265863 257.975531 
L 1123.377324 260.497462 
L 1124.426067 260.497462 
L 1124.537528 263.019393 
L 1125.586272 263.019393 
L 1125.697732 265.541324 
L 1126.746476 265.541324 
L 1126.857937 273.107117 
L 1127.90668 273.107117 
L 1128.018141 275.629048 
L 1129.066885 275.629048 
L 1129.178345 280.67291 
L 1130.227089 280.67291 
L 1130.33855 283.194841 
L 1131.387293 283.194841 
L 1131.498754 288.238703 
L 1132.547497 288.238703 
L 1132.658958 290.760634 
L 1133.707702 290.760634 
L 1133.819162 295.804497 
L 1134.867906 295.804497 
L 1134.979367 298.326428 
L 1135.987579 298.326428 
L 1136.09904 305.892221 
L 1137.107252 305.892221 
L 1137.218713 308.414152 
L 1138.267457 308.414152 
L 1138.378917 313.458014 
L 1139.427661 313.458014 
L 1139.539122 315.979945 
L 1140.587865 315.979945 
L 1140.699326 321.023807 
L 1141.748069 321.023807 
L 1141.85953 323.545738 
L 1142.908274 323.545738 
L 1143.019734 328.5896 
L 1144.068478 328.5896 
L 1144.179939 331.111531 
L 1145.228682 331.111531 
L 1145.340143 339.93829 
L 1146.388887 339.93829 
L 1146.500347 342.460221 
L 1147.549091 342.460221 
L 1147.660552 347.504083 
L 1148.709295 347.504083 
L 1148.820756 350.026014 
L 1149.869499 350.026014 
L 1149.98096 357.591807 
L 1151.029704 357.591807 
L 1151.141164 360.113738 
L 1152.189908 360.113738 
L 1152.301369 365.1576 
L 1153.350112 365.1576 
L 1153.461573 367.679531 
L 1154.191134 367.679531 
L 1154.302594 377.767255 
L 1155.032155 377.767255 
L 1155.143616 380.289186 
L 1156.19236 380.289186 
L 1156.30382 385.333048 
L 1157.352564 385.333048 
L 1157.464025 387.854979 
L 1158.512768 387.854979 
L 1158.624229 395.420772 
L 1159.672972 395.420772 
L 1159.784433 397.942703 
L 1160.833177 397.942703 
L 1160.944637 402.986566 
L 1161.993381 402.986566 
L 1162.104842 405.508497 
L 1163.153585 405.508497 
L 1163.265046 415.596221 
L 1164.31379 415.596221 
L 1164.42525 418.118152 
L 1165.473994 418.118152 
L 1165.585455 423.162014 
L 1166.634198 423.162014 
L 1166.745659 425.683945 
L 1167.794402 425.683945 
L 1167.905863 431.988772 
L 1168.954607 431.988772 
L 1169.066067 433.249738 
L 1169.537242 433.249738 
L 1169.648703 435.771669 
L 1170.114811 435.771669 
L 1170.226272 439.554566 
L 1170.69238 439.554566 
L 1170.803841 442.076497 
L 1171.275015 442.076497 
L 1171.386476 444.598428 
L 1171.857651 444.598428 
L 1171.969111 447.120359 
L 1172.394688 447.120359 
L 1172.506149 453.425186 
L 1173.514362 453.425186 
L 1173.625822 455.947117 
L 1174.674566 455.947117 
L 1174.786027 459.730014 
L 1175.83477 459.730014 
L 1175.946231 463.51291 
L 1176.417406 463.51291 
L 1176.528866 466.034841 
L 1176.994974 466.034841 
L 1177.106435 469.817738 
L 1177.572543 469.817738 
L 1177.684004 472.339669 
L 1178.099448 472.339669 
L 1178.210909 476.122566 
L 1179.203922 476.122566 
L 1179.315383 483.688359 
L 1180.364127 483.688359 
L 1180.475587 486.21029 
L 1181.524331 486.21029 
L 1181.635792 491.254152 
L 1182.684535 491.254152 
L 1182.795996 493.776083 
L 1183.804208 493.776083 
L 1183.915669 506.385738 
L 1184.923882 506.385738 
L 1185.035342 508.907669 
L 1186.084086 508.907669 
L 1186.195546 513.951531 
L 1187.24429 513.951531 
L 1187.355751 516.473462 
L 1188.404494 516.473462 
L 1188.515955 524.039255 
L 1189.564699 524.039255 
L 1189.676159 526.561186 
L 1190.724903 526.561186 
L 1190.836364 531.605048 
L 1191.885107 531.605048 
L 1191.996568 534.126979 
L 1193.045312 534.126979 
L 1193.156772 544.214703 
L 1194.205516 544.214703 
L 1194.316977 546.736634 
L 1195.36572 546.736634 
L 1195.477181 551.780497 
L 1196.525924 551.780497 
L 1196.637385 554.302428 
L 1197.686129 554.302428 
L 1197.797589 561.868221 
L 1198.846333 561.868221 
L 1198.957794 564.390152 
L 1200.006537 564.390152 
L 1200.117998 569.434014 
L 1201.166742 569.434014 
L 1201.278202 571.955945 
L 1202.007763 571.955945 
L 1202.119224 582.043669 
L 1202.848784 582.043669 
L 1202.960245 584.5656 
L 1204.008989 584.5656 
L 1204.120449 589.609462 
L 1205.169193 589.609462 
L 1205.280654 592.131393 
L 1206.329397 592.131393 
L 1206.440858 599.697186 
L 1207.489602 599.697186 
L 1207.601062 602.219117 
L 1208.649806 602.219117 
L 1208.761267 607.262979 
L 1209.81001 607.262979 
L 1209.921471 609.78491 
L 1210.970215 609.78491 
L 1211.081675 617.350703 
L 1212.130419 617.350703 
L 1212.241879 619.872634 
L 1213.290623 619.872634 
L 1213.402084 624.916497 
L 1214.450827 624.916497 
L 1214.562288 627.438428 
L 1215.611032 627.438428 
L 1215.722492 635.004221 
L 1216.771236 635.004221 
L 1216.882697 637.526152 
L 1217.93144 637.526152 
L 1218.042901 642.570014 
L 1219.091645 642.570014 
L 1219.203105 645.091945 
L 1220.211318 645.091945 
L 1220.322778 651.396772 
L 1221.330991 651.396772 
L 1221.442451 653.918703 
L 1222.491195 653.918703 
L 1222.602656 658.962566 
L 1223.651399 658.962566 
L 1223.76286 661.484497 
L 1224.811604 661.484497 
L 1224.923064 666.528359 
L 1225.971808 666.528359 
L 1226.083269 669.05029 
L 1227.132012 669.05029 
L 1227.243473 674.094152 
L 1228.292217 674.094152 
L 1228.403677 676.616083 
L 1229.452421 676.616083 
L 1229.563882 684.181876 
L 1230.612625 684.181876 
L 1230.724086 686.703807 
L 1231.772829 686.703807 
L 1231.88429 689.225738 
L 1232.933034 689.225738 
L 1233.044494 691.747669 
L 1234.093238 691.747669 
L 1234.204699 696.791531 
L 1235.253442 696.791531 
L 1235.364903 699.313462 
L 1236.413647 699.313462 
L 1236.530174 704.357324 
L 1237.675179 704.357324 
L 1237.786639 706.879255 
L 1238.835383 706.879255 
L 1238.946844 711.923117 
L 1239.995587 711.923117 
L 1240.107048 714.445048 
L 1241.155792 714.445048 
L 1241.267252 716.966979 
L 1242.315996 716.966979 
L 1242.427457 719.48891 
L 1243.4762 719.48891 
L 1243.587661 725.793738 
L 1244.636404 725.793738 
L 1244.747865 728.315669 
L 1245.796609 728.315669 
L 1245.908069 730.8376 
L 1246.956813 730.8376 
L 1247.068274 733.359531 
L 1248.117017 733.359531 
L 1248.228478 735.881462 
L 1249.277222 735.881462 
L 1249.388682 738.403393 
L 1250.437426 738.403393 
L 1250.548887 740.925324 
L 1251.59763 740.925324 
L 1251.709091 743.447255 
L 1252.717303 743.447255 
L 1252.828764 749.752083 
L 1253.836977 749.752083 
L 1253.948437 752.274014 
L 1254.997181 752.274014 
L 1255.108641 754.795945 
L 1256.157385 754.795945 
L 1256.268846 757.317876 
L 1257.317589 757.317876 
L 1257.42905 759.839807 
L 1259.637998 759.839807 
L 1259.749459 762.361738 
L 1261.958407 762.361738 
L 1262.069867 767.4056 
L 1264.278815 767.4056 
L 1264.390276 769.927531 
L 1266.599224 769.927531 
L 1266.710684 774.971393 
L 1268.919632 774.971393 
L 1269.031093 777.493324 
L 1270.920858 777.493324 
L 1271.032319 781.276221 
L 1272.922084 781.276221 
L 1273.033544 783.798152 
L 1275.242492 783.798152 
L 1275.353953 787.581048 
L 1279.883309 787.581048 
L 1279.99477 791.363945 
L 1284.524127 791.363945 
L 1284.635587 793.885876 
L 1289.124413 793.885876 
L 1289.235873 795.146841 
L 1293.724699 795.146841 
L 1293.836159 796.407807 
L 1294.829173 796.407807 
L 1294.869704 795.146841 
L 1294.895036 798.929738 
L 1294.935567 796.407807 
L 1294.940633 796.407807 
L 1294.996364 800.190703 
L 1295.052094 798.929738 
L 1295.067293 798.929738 
L 1295.082492 795.146841 
L 1295.178754 797.668772 
L 1295.356078 797.668772 
L 1295.376343 795.146841 
L 1295.401675 798.929738 
L 1295.462472 797.668772 
L 1295.933647 797.668772 
L 1296.045107 795.146841 
L 1300.533933 795.146841 
L 1300.645393 793.885876 
L 1305.134219 793.885876 
L 1305.245679 791.363945 
L 1309.775036 791.363945 
L 1309.886496 787.581048 
L 1314.415853 787.581048 
L 1314.527314 783.798152 
L 1316.736261 783.798152 
L 1316.847722 781.276221 
L 1318.737487 781.276221 
L 1318.848948 774.971393 
L 1320.738713 774.971393 
L 1320.850174 772.449462 
L 1323.059122 772.449462 
L 1323.170582 769.927531 
L 1325.37953 769.927531 
L 1325.490991 767.4056 
L 1327.699939 767.4056 
L 1327.811399 761.100772 
L 1330.020347 761.100772 
L 1330.131808 758.578841 
L 1332.340756 758.578841 
L 1332.452217 754.795945 
L 1334.661164 754.795945 
L 1334.772625 751.013048 
L 1335.821369 751.013048 
L 1335.932829 748.491117 
L 1336.941042 748.491117 
L 1337.052503 744.708221 
L 1338.060715 744.708221 
L 1338.172176 742.18629 
L 1339.220919 742.18629 
L 1339.33238 739.664359 
L 1340.381124 739.664359 
L 1340.492584 737.142428 
L 1341.541328 737.142428 
L 1341.652789 734.620497 
L 1342.701532 734.620497 
L 1342.812993 732.098566 
L 1343.861736 732.098566 
L 1343.973197 729.576634 
L 1345.021941 729.576634 
L 1345.133401 727.054703 
L 1346.182145 727.054703 
L 1346.293606 720.749876 
L 1347.342349 720.749876 
L 1347.45381 718.227945 
L 1348.502554 718.227945 
L 1348.614014 715.706014 
L 1349.662758 715.706014 
L 1349.774219 713.184083 
L 1350.822962 713.184083 
L 1350.934423 708.140221 
L 1351.983166 708.140221 
L 1352.094627 705.61829 
L 1353.143371 705.61829 
L 1353.264964 699.313462 
L 1354.404903 699.313462 
L 1354.516364 696.791531 
L 1355.565107 696.791531 
L 1355.676568 691.747669 
L 1356.725312 691.747669 
L 1356.836772 689.225738 
L 1357.885516 689.225738 
L 1357.996977 686.703807 
L 1359.04572 686.703807 
L 1359.157181 684.181876 
L 1360.205924 684.181876 
L 1360.317385 676.616083 
L 1361.366129 676.616083 
L 1361.477589 674.094152 
L 1362.526333 674.094152 
L 1362.637794 669.05029 
L 1363.686537 669.05029 
L 1363.797998 666.528359 
L 1364.846742 666.528359 
L 1364.958202 661.484497 
L 1366.006946 661.484497 
L 1366.118407 658.962566 
L 1367.16715 658.962566 
L 1367.278611 653.918703 
L 1368.327354 653.918703 
L 1368.438815 651.396772 
L 1369.447028 651.396772 
L 1369.558488 643.830979 
L 1370.566701 643.830979 
L 1370.678161 641.309048 
L 1371.726905 641.309048 
L 1371.838366 636.265186 
L 1372.887109 636.265186 
L 1372.99857 633.743255 
L 1374.047314 633.743255 
L 1374.158774 628.699393 
L 1375.207518 628.699393 
L 1375.318979 626.177462 
L 1376.367722 626.177462 
L 1376.479183 621.1336 
L 1377.527926 621.1336 
L 1377.639387 618.611669 
L 1378.688131 618.611669 
L 1378.799591 609.78491 
L 1379.848335 609.78491 
L 1379.959796 607.262979 
L 1381.008539 607.262979 
L 1381.12 602.219117 
L 1382.168744 602.219117 
L 1382.280204 599.697186 
L 1383.328948 599.697186 
L 1383.440409 592.131393 
L 1384.489152 592.131393 
L 1384.600613 589.609462 
L 1385.649356 589.609462 
L 1385.760817 584.5656 
L 1386.809561 584.5656 
L 1386.921021 582.043669 
L 1387.650582 582.043669 
L 1387.762043 571.955945 
L 1388.491604 571.955945 
L 1388.603064 569.434014 
L 1389.651808 569.434014 
L 1389.763269 564.390152 
L 1390.812012 564.390152 
L 1390.923473 561.868221 
L 1391.972217 561.868221 
L 1392.083677 554.302428 
L 1393.132421 554.302428 
L 1393.243882 551.780497 
L 1394.292625 551.780497 
L 1394.404086 546.736634 
L 1395.452829 546.736634 
L 1395.56429 544.214703 
L 1396.613034 544.214703 
L 1396.724494 534.126979 
L 1397.773238 534.126979 
L 1397.884699 531.605048 
L 1398.933442 531.605048 
L 1399.044903 526.561186 
L 1400.093647 526.561186 
L 1400.205107 524.039255 
L 1401.253851 524.039255 
L 1401.365312 517.734428 
L 1402.414055 517.734428 
L 1402.525516 516.473462 
L 1402.996691 516.473462 
L 1403.108151 513.951531 
L 1403.574259 513.951531 
L 1403.68572 510.168634 
L 1404.151828 510.168634 
L 1404.263289 507.646703 
L 1404.734464 507.646703 
L 1404.845924 505.124772 
L 1405.317099 505.124772 
L 1405.42856 502.602841 
L 1405.854137 502.602841 
L 1405.965598 496.298014 
L 1406.97381 496.298014 
L 1407.085271 493.776083 
L 1408.134014 493.776083 
L 1408.245475 489.993186 
L 1409.294219 489.993186 
L 1409.405679 486.21029 
L 1409.876854 486.21029 
L 1409.988315 483.688359 
L 1410.454423 483.688359 
L 1410.565884 479.905462 
L 1411.031992 479.905462 
L 1411.143453 477.383531 
L 1411.558897 477.383531 
L 1411.670358 473.600634 
L 1412.663371 473.600634 
L 1412.774831 466.034841 
L 1413.823575 466.034841 
L 1413.935036 463.51291 
L 1414.983779 463.51291 
L 1415.09524 458.469048 
L 1416.143984 458.469048 
L 1416.255444 455.947117 
L 1417.263657 455.947117 
L 1417.375117 443.337462 
L 1418.38333 443.337462 
L 1418.494791 440.815531 
L 1419.543534 440.815531 
L 1419.654995 435.771669 
L 1420.703739 435.771669 
L 1420.815199 433.249738 
L 1421.863943 433.249738 
L 1421.975403 425.683945 
L 1423.024147 425.683945 
L 1423.135608 423.162014 
L 1424.184351 423.162014 
L 1424.295812 418.118152 
L 1425.344556 418.118152 
L 1425.456016 415.596221 
L 1426.50476 415.596221 
L 1426.616221 405.508497 
L 1427.664964 405.508497 
L 1427.776425 402.986566 
L 1428.825169 402.986566 
L 1428.936629 397.942703 
L 1429.985373 397.942703 
L 1430.096834 395.420772 
L 1431.145577 395.420772 
L 1431.257038 387.854979 
L 1432.305781 387.854979 
L 1432.417242 385.333048 
L 1433.465986 385.333048 
L 1433.577446 380.289186 
L 1434.62619 380.289186 
L 1434.737651 377.767255 
L 1435.467211 377.767255 
L 1435.578672 367.679531 
L 1436.308233 367.679531 
L 1436.419694 365.1576 
L 1437.468437 365.1576 
L 1437.579898 360.113738 
L 1438.628641 360.113738 
L 1438.740102 357.591807 
L 1439.788846 357.591807 
L 1439.900306 350.026014 
L 1440.94905 350.026014 
L 1441.060511 347.504083 
L 1442.109254 347.504083 
L 1442.220715 342.460221 
L 1443.269459 342.460221 
L 1443.380919 339.93829 
L 1444.429663 339.93829 
L 1444.541124 332.372497 
L 1445.589867 332.372497 
L 1445.701328 329.850566 
L 1446.750072 329.850566 
L 1446.861532 324.806703 
L 1447.910276 324.806703 
L 1448.021736 322.284772 
L 1449.07048 322.284772 
L 1449.181941 314.718979 
L 1450.230684 314.718979 
L 1450.342145 312.197048 
L 1451.390889 312.197048 
L 1451.502349 307.153186 
L 1452.551093 307.153186 
L 1452.662554 304.631255 
L 1453.670766 304.631255 
L 1453.782227 298.326428 
L 1454.790439 298.326428 
L 1454.9019 295.804497 
L 1455.950644 295.804497 
L 1456.062104 290.760634 
L 1457.110848 290.760634 
L 1457.222308 288.238703 
L 1458.271052 288.238703 
L 1458.382513 283.194841 
L 1459.431256 283.194841 
L 1459.542717 280.67291 
L 1460.591461 280.67291 
L 1460.702921 275.629048 
L 1461.751665 275.629048 
L 1461.863126 273.107117 
L 1462.911869 273.107117 
L 1463.02333 265.541324 
L 1464.072074 265.541324 
L 1464.183534 263.019393 
L 1465.232278 263.019393 
L 1465.343739 260.497462 
L 1466.392482 260.497462 
L 1466.503943 257.975531 
L 1467.552686 257.975531 
L 1467.664147 252.931669 
L 1468.712891 252.931669 
L 1468.824351 250.409738 
L 1469.873095 250.409738 
L 1469.989622 245.365876 
L 1471.134627 245.365876 
L 1471.246088 242.843945 
L 1472.294831 242.843945 
L 1472.406292 237.800083 
L 1473.455036 237.800083 
L 1473.566496 235.278152 
L 1474.61524 235.278152 
L 1474.726701 232.756221 
L 1475.775444 232.756221 
L 1475.886905 230.23429 
L 1476.935649 230.23429 
L 1477.047109 223.929462 
L 1478.095853 223.929462 
L 1478.207314 221.407531 
L 1479.256057 221.407531 
L 1479.367518 218.8856 
L 1480.416261 218.8856 
L 1480.527722 216.363669 
L 1481.576466 216.363669 
L 1481.687926 213.841738 
L 1482.73667 213.841738 
L 1482.848131 211.319807 
L 1483.896874 211.319807 
L 1484.008335 208.797876 
L 1485.057079 208.797876 
L 1485.168539 206.275945 
L 1486.176752 206.275945 
L 1486.288212 199.971117 
L 1487.296425 199.971117 
L 1487.407886 197.449186 
L 1488.456629 197.449186 
L 1488.56809 194.927255 
L 1489.616834 194.927255 
L 1489.728294 192.405324 
L 1490.777038 192.405324 
L 1490.888498 189.883393 
L 1493.097446 189.883393 
L 1493.208907 187.361462 
L 1495.417855 187.361462 
L 1495.529316 182.3176 
L 1497.738264 182.3176 
L 1497.849724 179.795669 
L 1500.058672 179.795669 
L 1500.170133 174.751807 
L 1502.379081 174.751807 
L 1502.490541 172.229876 
L 1504.380306 172.229876 
L 1504.491767 168.446979 
L 1506.381532 168.446979 
L 1506.492993 165.925048 
L 1508.701941 165.925048 
L 1508.813401 162.142152 
L 1513.342758 162.142152 
L 1513.454219 158.359255 
L 1517.983575 158.359255 
L 1518.095036 155.837324 
L 1522.583861 155.837324 
L 1522.695322 154.576359 
L 1527.184147 154.576359 
L 1527.295608 153.315393 
L 1528.344351 153.315393 
L 1528.369683 145.7496 
L 1528.455812 150.793462 
L 1528.481144 150.793462 
L 1528.50141 148.271531 
L 1528.592605 153.315393 
L 1528.623003 153.315393 
L 1528.638202 155.837324 
L 1528.643269 148.271531 
L 1528.729397 153.315393 
L 1528.764862 153.315393 
L 1528.785128 150.793462 
L 1528.876323 155.837324 
L 1528.906721 155.837324 
L 1528.926987 158.359255 
L 1528.932053 148.271531 
L 1529.002983 153.315393 
L 1529.089111 150.793462 
L 1529.063779 155.837324 
L 1529.109377 153.315393 
L 1529.129642 153.315393 
L 1529.215771 158.359255 
L 1529.220838 150.793462 
L 1529.236037 153.315393 
L 1529.271502 153.315393 
L 1529.35763 158.359255 
L 1529.382962 155.837324 
L 1529.413361 155.837324 
L 1529.504556 160.881186 
L 1529.524821 147.010566 
L 1529.616016 152.054428 
L 1529.636282 152.054428 
L 1529.656547 149.532497 
L 1529.747743 154.576359 
L 1529.778141 154.576359 
L 1529.79334 157.09829 
L 1529.798407 149.532497 
L 1529.884535 154.576359 
L 1529.92 154.576359 
L 1529.940266 152.054428 
L 1530.031461 157.09829 
L 1530.061859 157.09829 
L 1530.082125 159.620221 
L 1530.087191 149.532497 
L 1530.158121 154.576359 
L 1530.244249 152.054428 
L 1530.218917 157.09829 
L 1530.264515 154.576359 
L 1530.28478 154.576359 
L 1530.370909 159.620221 
L 1530.375975 152.054428 
L 1530.391175 154.576359 
L 1530.426639 154.576359 
L 1530.512768 159.620221 
L 1530.5381 157.09829 
L 1530.568498 157.09829 
L 1530.66476 162.142152 
L 1530.690092 149.532497 
L 1530.776221 154.576359 
L 1530.801553 154.576359 
L 1530.821818 152.054428 
L 1530.913013 157.09829 
L 1530.943412 157.09829 
L 1530.958611 159.620221 
L 1530.963677 152.054428 
L 1531.049806 157.09829 
L 1531.085271 157.09829 
L 1531.105536 154.576359 
L 1531.196731 159.620221 
L 1531.22713 159.620221 
L 1531.247395 162.142152 
L 1531.252462 152.054428 
L 1531.323391 157.09829 
L 1531.40952 154.576359 
L 1531.384188 159.620221 
L 1531.429785 157.09829 
L 1531.450051 157.09829 
L 1531.53618 162.142152 
L 1531.541246 154.576359 
L 1531.556445 157.09829 
L 1531.59191 157.09829 
L 1531.678039 162.142152 
L 1531.703371 159.620221 
L 1531.733769 159.620221 
L 1531.824964 164.664083 
L 1531.84523 145.7496 
L 1531.936425 150.793462 
L 1531.956691 150.793462 
L 1531.976956 148.271531 
L 1532.068151 153.315393 
L 1532.09855 153.315393 
L 1532.113749 155.837324 
L 1532.118815 148.271531 
L 1532.204944 153.315393 
L 1532.240409 153.315393 
L 1532.260674 150.793462 
L 1532.351869 155.837324 
L 1532.382268 155.837324 
L 1532.402533 158.359255 
L 1532.4076 148.271531 
L 1532.478529 153.315393 
L 1532.564658 150.793462 
L 1532.539326 155.837324 
L 1532.584923 153.315393 
L 1532.605189 153.315393 
L 1532.691318 158.359255 
L 1532.696384 150.793462 
L 1532.711583 153.315393 
L 1532.747048 153.315393 
L 1532.833177 158.359255 
L 1532.858509 155.837324 
L 1532.888907 155.837324 
L 1532.985169 160.881186 
L 1533.010501 148.271531 
L 1533.096629 153.315393 
L 1533.121961 153.315393 
L 1533.142227 150.793462 
L 1533.233422 155.837324 
L 1533.26382 155.837324 
L 1533.279019 158.359255 
L 1533.284086 150.793462 
L 1533.370215 155.837324 
L 1533.405679 155.837324 
L 1533.425945 153.315393 
L 1533.51714 158.359255 
L 1533.547538 158.359255 
L 1533.567804 160.881186 
L 1533.57287 150.793462 
L 1533.6438 155.837324 
L 1533.729928 153.315393 
L 1533.704597 158.359255 
L 1533.750194 155.837324 
L 1533.77046 155.837324 
L 1533.856588 160.881186 
L 1533.861655 153.315393 
L 1533.876854 155.837324 
L 1533.912319 155.837324 
L 1533.998447 160.881186 
L 1534.023779 158.359255 
L 1534.054178 158.359255 
L 1534.145373 163.403117 
L 1534.165638 148.271531 
L 1534.256834 153.315393 
L 1534.277099 153.315393 
L 1534.297365 150.793462 
L 1534.38856 155.837324 
L 1534.418958 155.837324 
L 1534.434157 158.359255 
L 1534.439224 150.793462 
L 1534.525352 155.837324 
L 1534.560817 155.837324 
L 1534.581083 153.315393 
L 1534.672278 158.359255 
L 1534.702676 158.359255 
L 1534.722942 160.881186 
L 1534.728008 150.793462 
L 1534.798938 155.837324 
L 1534.885066 153.315393 
L 1534.859734 158.359255 
L 1534.905332 155.837324 
L 1534.925598 155.837324 
L 1535.011726 160.881186 
L 1535.016793 153.315393 
L 1535.031992 155.837324 
L 1535.067457 155.837324 
L 1535.153585 160.881186 
L 1535.178917 158.359255 
L 1535.209316 158.359255 
L 1535.305577 163.403117 
L 1535.330909 150.793462 
L 1535.417038 155.837324 
L 1535.44237 155.837324 
L 1535.462635 153.315393 
L 1535.55383 158.359255 
L 1535.584229 158.359255 
L 1535.599428 160.881186 
L 1535.604494 153.315393 
L 1535.690623 158.359255 
L 1535.726088 158.359255 
L 1535.746353 155.837324 
L 1535.837549 160.881186 
L 1535.867947 160.881186 
L 1535.888212 163.403117 
L 1535.893279 153.315393 
L 1535.964208 158.359255 
L 1536.050337 155.837324 
L 1536.025005 160.881186 
L 1536.070603 158.359255 
L 1536.090868 158.359255 
L 1536.176997 163.403117 
L 1536.182063 155.837324 
L 1536.197263 158.359255 
L 1536.232727 158.359255 
L 1536.318856 163.403117 
L 1536.344188 160.881186 
L 1536.374586 160.881186 
L 1536.465781 165.925048 
L 1536.486047 148.271531 
L 1536.577242 153.315393 
L 1536.597508 153.315393 
L 1536.617773 150.793462 
L 1536.708968 155.837324 
L 1536.739367 155.837324 
L 1536.754566 158.359255 
L 1536.759632 150.793462 
L 1536.845761 155.837324 
L 1536.881226 155.837324 
L 1536.901491 153.315393 
L 1536.992686 158.359255 
L 1537.023085 158.359255 
L 1537.04335 160.881186 
L 1537.048417 150.793462 
L 1537.119346 155.837324 
L 1537.205475 153.315393 
L 1537.180143 158.359255 
L 1537.225741 155.837324 
L 1537.246006 155.837324 
L 1537.332135 160.881186 
L 1537.337201 153.315393 
L 1537.3524 155.837324 
L 1537.387865 155.837324 
L 1537.473994 160.881186 
L 1537.499326 158.359255 
L 1537.529724 158.359255 
L 1537.625986 163.403117 
L 1537.651318 150.793462 
L 1537.737446 155.837324 
L 1537.762778 155.837324 
L 1537.783044 153.315393 
L 1537.874239 158.359255 
L 1537.904637 158.359255 
L 1537.919837 160.881186 
L 1537.924903 153.315393 
L 1538.011032 158.359255 
L 1538.046496 158.359255 
L 1538.066762 155.837324 
L 1538.157957 160.881186 
L 1538.188355 160.881186 
L 1538.208621 163.403117 
L 1538.213687 153.315393 
L 1538.284617 158.359255 
L 1538.370746 155.837324 
L 1538.345414 160.881186 
L 1538.391011 158.359255 
L 1538.411277 158.359255 
L 1538.497406 163.403117 
L 1538.502472 155.837324 
L 1538.517671 158.359255 
L 1538.553136 158.359255 
L 1538.639265 163.403117 
L 1538.664597 160.881186 
L 1538.694995 160.881186 
L 1538.78619 165.925048 
L 1538.806456 150.793462 
L 1538.897651 155.837324 
L 1538.917916 155.837324 
L 1538.938182 153.315393 
L 1539.029377 158.359255 
L 1539.059775 158.359255 
L 1539.074974 160.881186 
L 1539.080041 153.315393 
L 1539.16617 158.359255 
L 1539.201634 158.359255 
L 1539.2219 155.837324 
L 1539.313095 160.881186 
L 1539.343493 160.881186 
L 1539.363759 163.403117 
L 1539.368825 153.315393 
L 1539.439755 158.359255 
L 1539.525884 155.837324 
L 1539.500552 160.881186 
L 1539.546149 158.359255 
L 1539.566415 158.359255 
L 1539.652543 163.403117 
L 1539.65761 155.837324 
L 1539.672809 158.359255 
L 1539.708274 158.359255 
L 1539.794402 163.403117 
L 1539.819734 160.881186 
L 1539.850133 160.881186 
L 1539.946394 165.925048 
L 1539.971726 153.315393 
L 1540.057855 158.359255 
L 1540.083187 158.359255 
L 1540.103453 155.837324 
L 1540.194648 160.881186 
L 1540.225046 160.881186 
L 1540.240245 163.403117 
L 1540.245312 155.837324 
L 1540.33144 160.881186 
L 1540.366905 160.881186 
L 1540.387171 158.359255 
L 1540.478366 163.403117 
L 1540.508764 163.403117 
L 1540.52903 165.925048 
L 1540.534096 155.837324 
L 1540.605026 160.881186 
L 1540.691154 158.359255 
L 1540.665822 163.403117 
L 1540.71142 160.881186 
L 1540.731685 160.881186 
L 1540.817814 165.925048 
L 1540.82288 158.359255 
L 1540.83808 160.881186 
L 1540.873544 160.881186 
L 1540.959673 165.925048 
L 1540.985005 163.403117 
L 1541.015403 163.403117 
L 1541.131931 168.446979 
L 1593.949091 168.446979 
L 1593.949091 168.446979 
" style="fill:none;stroke:#ff7f0e;stroke-linecap:square;stroke-width:1.5;"/>
   </g>
   <g id="patch_3">
    <path d="M 944.64 836.8848 
L 944.64 112.8384 
" style="fill:none;stroke:#000000;stroke-linecap:square;stroke-linejoin:miter;stroke-width:0.8;"/>
   </g>
   <g id="patch_4">
    <path d="M 1658.88 836.8848 
L 1658.88 112.8384 
" style="fill:none;"/>
   </g>
   <g id="patch_5">
    <path d="M 230.4 474.8616 
L 1658.88 474.8616 
" style="fill:none;stroke:#000000;stroke-linecap:square;stroke-linejoin:miter;stroke-width:0.8;"/>
   </g>
   <g id="patch_6">
    <path d="M 230.4 112.8384 
L 1658.88 112.8384 
" style="fill:none;"/>
   </g>
   <g id="text_17">
    <!-- Sine function -->
    <g transform="translate(905.25375 106.8384)scale(0.12 -0.12)">
     <defs>
      <path d="M 3425 4513 
L 3425 3897 
Q 3066 4069 2747 4153 
Q 2428 4238 2131 4238 
Q 1616 4238 1336 4038 
Q 1056 3838 1056 3469 
Q 1056 3159 1242 3001 
Q 1428 2844 1947 2747 
L 2328 2669 
Q 3034 2534 3370 2195 
Q 3706 1856 3706 1288 
Q 3706 609 3251 259 
Q 2797 -91 1919 -91 
Q 1588 -91 1214 -16 
Q 841 59 441 206 
L 441 856 
Q 825 641 1194 531 
Q 1563 422 1919 422 
Q 2459 422 2753 634 
Q 3047 847 3047 1241 
Q 3047 1584 2836 1778 
Q 2625 1972 2144 2069 
L 1759 2144 
Q 1053 2284 737 2584 
Q 422 2884 422 3419 
Q 422 4038 858 4394 
Q 1294 4750 2059 4750 
Q 2388 4750 2728 4690 
Q 3069 4631 3425 4513 
z
" id="DejaVuSans-53" transform="scale(0.015625)"/>
      <path d="M 603 3500 
L 1178 3500 
L 1178 0 
L 603 0 
L 603 3500 
z
M 603 4863 
L 1178 4863 
L 1178 4134 
L 603 4134 
L 603 4863 
z
" id="DejaVuSans-69" transform="scale(0.015625)"/>
      <path d="M 3513 2113 
L 3513 0 
L 2938 0 
L 2938 2094 
Q 2938 2591 2744 2837 
Q 2550 3084 2163 3084 
Q 1697 3084 1428 2787 
Q 1159 2491 1159 1978 
L 1159 0 
L 581 0 
L 581 3500 
L 1159 3500 
L 1159 2956 
Q 1366 3272 1645 3428 
Q 1925 3584 2291 3584 
Q 2894 3584 3203 3211 
Q 3513 2838 3513 2113 
z
" id="DejaVuSans-6e" transform="scale(0.015625)"/>
      <path d="M 3597 1894 
L 3597 1613 
L 953 1613 
Q 991 1019 1311 708 
Q 1631 397 2203 397 
Q 2534 397 2845 478 
Q 3156 559 3463 722 
L 3463 178 
Q 3153 47 2828 -22 
Q 2503 -91 2169 -91 
Q 1331 -91 842 396 
Q 353 884 353 1716 
Q 353 2575 817 3079 
Q 1281 3584 2069 3584 
Q 2775 3584 3186 3129 
Q 3597 2675 3597 1894 
z
M 3022 2063 
Q 3016 2534 2758 2815 
Q 2500 3097 2075 3097 
Q 1594 3097 1305 2825 
Q 1016 2553 972 2059 
L 3022 2063 
z
" id="DejaVuSans-65" transform="scale(0.015625)"/>
      <path id="DejaVuSans-20" transform="scale(0.015625)"/>
      <path d="M 2375 4863 
L 2375 4384 
L 1825 4384 
Q 1516 4384 1395 4259 
Q 1275 4134 1275 3809 
L 1275 3500 
L 2222 3500 
L 2222 3053 
L 1275 3053 
L 1275 0 
L 697 0 
L 697 3053 
L 147 3053 
L 147 3500 
L 697 3500 
L 697 3744 
Q 697 4328 969 4595 
Q 1241 4863 1831 4863 
L 2375 4863 
z
" id="DejaVuSans-66" transform="scale(0.015625)"/>
      <path d="M 544 1381 
L 544 3500 
L 1119 3500 
L 1119 1403 
Q 1119 906 1312 657 
Q 1506 409 1894 409 
Q 2359 409 2629 706 
Q 2900 1003 2900 1516 
L 2900 3500 
L 3475 3500 
L 3475 0 
L 2900 0 
L 2900 538 
Q 2691 219 2414 64 
Q 2138 -91 1772 -91 
Q 1169 -91 856 284 
Q 544 659 544 1381 
z
M 1991 3584 
L 1991 3584 
z
" id="DejaVuSans-75" transform="scale(0.015625)"/>
      <path d="M 3122 3366 
L 3122 2828 
Q 2878 2963 2633 3030 
Q 2388 3097 2138 3097 
Q 1578 3097 1268 2742 
Q 959 2388 959 1747 
Q 959 1106 1268 751 
Q 1578 397 2138 397 
Q 2388 397 2633 464 
Q 2878 531 3122 666 
L 3122 134 
Q 2881 22 2623 -34 
Q 2366 -91 2075 -91 
Q 1284 -91 818 406 
Q 353 903 353 1747 
Q 353 2603 823 3093 
Q 1294 3584 2113 3584 
Q 2378 3584 2631 3529 
Q 2884 3475 3122 3366 
z
" id="DejaVuSans-63" transform="scale(0.015625)"/>
      <path d="M 1172 4494 
L 1172 3500 
L 2356 3500 
L 2356 3053 
L 1172 3053 
L 1172 1153 
Q 1172 725 1289 603 
Q 1406 481 1766 481 
L 2356 481 
L 2356 0 
L 1766 0 
Q 1100 0 847 248 
Q 594 497 594 1153 
L 594 3053 
L 172 3053 
L 172 3500 
L 594 3500 
L 594 4494 
L 1172 4494 
z
" id="DejaVuSans-74" transform="scale(0.015625)"/>
      <path d="M 1959 3097 
Q 1497 3097 1228 2736 
Q 959 2375 959 1747 
Q 959 1119 1226 758 
Q 1494 397 1959 397 
Q 2419 397 2687 759 
Q 2956 1122 2956 1747 
Q 2956 2369 2687 2733 
Q 2419 3097 1959 3097 
z
M 1959 3584 
Q 2709 3584 3137 3096 
Q 3566 2609 3566 1747 
Q 3566 888 3137 398 
Q 2709 -91 1959 -91 
Q 1206 -91 779 398 
Q 353 888 353 1747 
Q 353 2609 779 3096 
Q 1206 3584 1959 3584 
z
" id="DejaVuSans-6f" transform="scale(0.015625)"/>
     </defs>
     <use xlink:href="#DejaVuSans-53"/>
     <use x="63.476562" xlink:href="#DejaVuSans-69"/>
     <use x="91.259766" xlink:href="#DejaVuSans-6e"/>
     <use x="154.638672" xlink:href="#DejaVuSans-65"/>
     <use x="216.162109" xlink:href="#DejaVuSans-20"/>
     <use x="247.949219" xlink:href="#DejaVuSans-66"/>
     <use x="283.154297" xlink:href="#DejaVuSans-75"/>
     <use x="346.533203" xlink:href="#DejaVuSans-6e"/>
     <use x="409.912109" xlink:href="#DejaVuSans-63"/>
     <use x="464.892578" xlink:href="#DejaVuSans-74"/>
     <use x="504.101562" xlink:href="#DejaVuSans-69"/>
     <use x="531.884766" xlink:href="#DejaVuSans-6f"/>
     <use x="593.066406" xlink:href="#DejaVuSans-6e"/>
    </g>
   </g>
   <g id="legend_1">
    <g id="patch_7">
     <path d="M 237.4 150.19465 
L 427.515625 150.19465 
Q 429.515625 150.19465 429.515625 148.19465 
L 429.515625 119.8384 
Q 429.515625 117.8384 427.515625 117.8384 
L 237.4 117.8384 
Q 235.4 117.8384 235.4 119.8384 
L 235.4 148.19465 
Q 235.4 150.19465 237.4 150.19465 
z
" style="fill:#ffffff;opacity:0.8;stroke:#cccccc;stroke-linejoin:miter;"/>
    </g>
    <g id="line2d_19">
     <path d="M 239.4 125.936838 
L 259.4 125.936838 
" style="fill:none;stroke:#1f77b4;stroke-linecap:square;stroke-width:1.5;"/>
    </g>
    <g id="line2d_20"/>
    <g id="text_18">
     <!-- numpy.sin -->
     <g transform="translate(267.4 129.436838)scale(0.1 -0.1)">
      <defs>
       <path d="M 3328 2828 
Q 3544 3216 3844 3400 
Q 4144 3584 4550 3584 
Q 5097 3584 5394 3201 
Q 5691 2819 5691 2113 
L 5691 0 
L 5113 0 
L 5113 2094 
Q 5113 2597 4934 2840 
Q 4756 3084 4391 3084 
Q 3944 3084 3684 2787 
Q 3425 2491 3425 1978 
L 3425 0 
L 2847 0 
L 2847 2094 
Q 2847 2600 2669 2842 
Q 2491 3084 2119 3084 
Q 1678 3084 1418 2786 
Q 1159 2488 1159 1978 
L 1159 0 
L 581 0 
L 581 3500 
L 1159 3500 
L 1159 2956 
Q 1356 3278 1631 3431 
Q 1906 3584 2284 3584 
Q 2666 3584 2933 3390 
Q 3200 3197 3328 2828 
z
" id="DejaVuSans-6d" transform="scale(0.015625)"/>
       <path d="M 1159 525 
L 1159 -1331 
L 581 -1331 
L 581 3500 
L 1159 3500 
L 1159 2969 
Q 1341 3281 1617 3432 
Q 1894 3584 2278 3584 
Q 2916 3584 3314 3078 
Q 3713 2572 3713 1747 
Q 3713 922 3314 415 
Q 2916 -91 2278 -91 
Q 1894 -91 1617 61 
Q 1341 213 1159 525 
z
M 3116 1747 
Q 3116 2381 2855 2742 
Q 2594 3103 2138 3103 
Q 1681 3103 1420 2742 
Q 1159 2381 1159 1747 
Q 1159 1113 1420 752 
Q 1681 391 2138 391 
Q 2594 391 2855 752 
Q 3116 1113 3116 1747 
z
" id="DejaVuSans-70" transform="scale(0.015625)"/>
       <path d="M 2059 -325 
Q 1816 -950 1584 -1140 
Q 1353 -1331 966 -1331 
L 506 -1331 
L 506 -850 
L 844 -850 
Q 1081 -850 1212 -737 
Q 1344 -625 1503 -206 
L 1606 56 
L 191 3500 
L 800 3500 
L 1894 763 
L 2988 3500 
L 3597 3500 
L 2059 -325 
z
" id="DejaVuSans-79" transform="scale(0.015625)"/>
       <path d="M 2834 3397 
L 2834 2853 
Q 2591 2978 2328 3040 
Q 2066 3103 1784 3103 
Q 1356 3103 1142 2972 
Q 928 2841 928 2578 
Q 928 2378 1081 2264 
Q 1234 2150 1697 2047 
L 1894 2003 
Q 2506 1872 2764 1633 
Q 3022 1394 3022 966 
Q 3022 478 2636 193 
Q 2250 -91 1575 -91 
Q 1294 -91 989 -36 
Q 684 19 347 128 
L 347 722 
Q 666 556 975 473 
Q 1284 391 1588 391 
Q 1994 391 2212 530 
Q 2431 669 2431 922 
Q 2431 1156 2273 1281 
Q 2116 1406 1581 1522 
L 1381 1569 
Q 847 1681 609 1914 
Q 372 2147 372 2553 
Q 372 3047 722 3315 
Q 1072 3584 1716 3584 
Q 2034 3584 2315 3537 
Q 2597 3491 2834 3397 
z
" id="DejaVuSans-73" transform="scale(0.015625)"/>
      </defs>
      <use xlink:href="#DejaVuSans-6e"/>
      <use x="63.378906" xlink:href="#DejaVuSans-75"/>
      <use x="126.757812" xlink:href="#DejaVuSans-6d"/>
      <use x="224.169922" xlink:href="#DejaVuSans-70"/>
      <use x="287.646484" xlink:href="#DejaVuSans-79"/>
      <use x="332.576172" xlink:href="#DejaVuSans-2e"/>
      <use x="364.363281" xlink:href="#DejaVuSans-73"/>
      <use x="416.462891" xlink:href="#DejaVuSans-69"/>
      <use x="444.246094" xlink:href="#DejaVuSans-6e"/>
     </g>
    </g>
    <g id="line2d_21">
     <path d="M 239.4 140.614963 
L 259.4 140.614963 
" style="fill:none;stroke:#ff7f0e;stroke-linecap:square;stroke-width:1.5;"/>
    </g>
    <g id="line2d_22"/>
    <g id="text_19">
     <!-- RISC-V CORDIC implementation -->
     <g transform="translate(267.4 144.114963)scale(0.1 -0.1)">
      <defs>
       <path d="M 2841 2188 
Q 3044 2119 3236 1894 
Q 3428 1669 3622 1275 
L 4263 0 
L 3584 0 
L 2988 1197 
Q 2756 1666 2539 1819 
Q 2322 1972 1947 1972 
L 1259 1972 
L 1259 0 
L 628 0 
L 628 4666 
L 2053 4666 
Q 2853 4666 3247 4331 
Q 3641 3997 3641 3322 
Q 3641 2881 3436 2590 
Q 3231 2300 2841 2188 
z
M 1259 4147 
L 1259 2491 
L 2053 2491 
Q 2509 2491 2742 2702 
Q 2975 2913 2975 3322 
Q 2975 3731 2742 3939 
Q 2509 4147 2053 4147 
L 1259 4147 
z
" id="DejaVuSans-52" transform="scale(0.015625)"/>
       <path d="M 628 4666 
L 1259 4666 
L 1259 0 
L 628 0 
L 628 4666 
z
" id="DejaVuSans-49" transform="scale(0.015625)"/>
       <path d="M 4122 4306 
L 4122 3641 
Q 3803 3938 3442 4084 
Q 3081 4231 2675 4231 
Q 1875 4231 1450 3742 
Q 1025 3253 1025 2328 
Q 1025 1406 1450 917 
Q 1875 428 2675 428 
Q 3081 428 3442 575 
Q 3803 722 4122 1019 
L 4122 359 
Q 3791 134 3420 21 
Q 3050 -91 2638 -91 
Q 1578 -91 968 557 
Q 359 1206 359 2328 
Q 359 3453 968 4101 
Q 1578 4750 2638 4750 
Q 3056 4750 3426 4639 
Q 3797 4528 4122 4306 
z
" id="DejaVuSans-43" transform="scale(0.015625)"/>
       <path d="M 313 2009 
L 1997 2009 
L 1997 1497 
L 313 1497 
L 313 2009 
z
" id="DejaVuSans-2d" transform="scale(0.015625)"/>
       <path d="M 1831 0 
L 50 4666 
L 709 4666 
L 2188 738 
L 3669 4666 
L 4325 4666 
L 2547 0 
L 1831 0 
z
" id="DejaVuSans-56" transform="scale(0.015625)"/>
       <path d="M 2522 4238 
Q 1834 4238 1429 3725 
Q 1025 3213 1025 2328 
Q 1025 1447 1429 934 
Q 1834 422 2522 422 
Q 3209 422 3611 934 
Q 4013 1447 4013 2328 
Q 4013 3213 3611 3725 
Q 3209 4238 2522 4238 
z
M 2522 4750 
Q 3503 4750 4090 4092 
Q 4678 3434 4678 2328 
Q 4678 1225 4090 567 
Q 3503 -91 2522 -91 
Q 1538 -91 948 565 
Q 359 1222 359 2328 
Q 359 3434 948 4092 
Q 1538 4750 2522 4750 
z
" id="DejaVuSans-4f" transform="scale(0.015625)"/>
       <path d="M 1259 4147 
L 1259 519 
L 2022 519 
Q 2988 519 3436 956 
Q 3884 1394 3884 2338 
Q 3884 3275 3436 3711 
Q 2988 4147 2022 4147 
L 1259 4147 
z
M 628 4666 
L 1925 4666 
Q 3281 4666 3915 4102 
Q 4550 3538 4550 2338 
Q 4550 1131 3912 565 
Q 3275 0 1925 0 
L 628 0 
L 628 4666 
z
" id="DejaVuSans-44" transform="scale(0.015625)"/>
       <path d="M 603 4863 
L 1178 4863 
L 1178 0 
L 603 0 
L 603 4863 
z
" id="DejaVuSans-6c" transform="scale(0.015625)"/>
       <path d="M 2194 1759 
Q 1497 1759 1228 1600 
Q 959 1441 959 1056 
Q 959 750 1161 570 
Q 1363 391 1709 391 
Q 2188 391 2477 730 
Q 2766 1069 2766 1631 
L 2766 1759 
L 2194 1759 
z
M 3341 1997 
L 3341 0 
L 2766 0 
L 2766 531 
Q 2569 213 2275 61 
Q 1981 -91 1556 -91 
Q 1019 -91 701 211 
Q 384 513 384 1019 
Q 384 1609 779 1909 
Q 1175 2209 1959 2209 
L 2766 2209 
L 2766 2266 
Q 2766 2663 2505 2880 
Q 2244 3097 1772 3097 
Q 1472 3097 1187 3025 
Q 903 2953 641 2809 
L 641 3341 
Q 956 3463 1253 3523 
Q 1550 3584 1831 3584 
Q 2591 3584 2966 3190 
Q 3341 2797 3341 1997 
z
" id="DejaVuSans-61" transform="scale(0.015625)"/>
      </defs>
      <use xlink:href="#DejaVuSans-52"/>
      <use x="69.482422" xlink:href="#DejaVuSans-49"/>
      <use x="98.974609" xlink:href="#DejaVuSans-53"/>
      <use x="162.451172" xlink:href="#DejaVuSans-43"/>
      <use x="232.275391" xlink:href="#DejaVuSans-2d"/>
      <use x="262.484375" xlink:href="#DejaVuSans-56"/>
      <use x="330.892578" xlink:href="#DejaVuSans-20"/>
      <use x="362.679688" xlink:href="#DejaVuSans-43"/>
      <use x="432.503906" xlink:href="#DejaVuSans-4f"/>
      <use x="511.214844" xlink:href="#DejaVuSans-52"/>
      <use x="580.697266" xlink:href="#DejaVuSans-44"/>
      <use x="657.699219" xlink:href="#DejaVuSans-49"/>
      <use x="687.191406" xlink:href="#DejaVuSans-43"/>
      <use x="757.015625" xlink:href="#DejaVuSans-20"/>
      <use x="788.802734" xlink:href="#DejaVuSans-69"/>
      <use x="816.585938" xlink:href="#DejaVuSans-6d"/>
      <use x="913.998047" xlink:href="#DejaVuSans-70"/>
      <use x="977.474609" xlink:href="#DejaVuSans-6c"/>
      <use x="1005.257812" xlink:href="#DejaVuSans-65"/>
      <use x="1066.78125" xlink:href="#DejaVuSans-6d"/>
      <use x="1164.193359" xlink:href="#DejaVuSans-65"/>
      <use x="1225.716797" xlink:href="#DejaVuSans-6e"/>
      <use x="1289.095703" xlink:href="#DejaVuSans-74"/>
      <use x="1328.304688" xlink:href="#DejaVuSans-61"/>
      <use x="1389.583984" xlink:href="#DejaVuSans-74"/>
      <use x="1428.792969" xlink:href="#DejaVuSans-69"/>
      <use x="1456.576172" xlink:href="#DejaVuSans-6f"/>
      <use x="1517.757812" xlink:href="#DejaVuSans-6e"/>
     </g>
    </g>
   </g>
  </g>
 </g>
 <defs>
  <clipPath id="p63e8a8d69c">
   <rect height="724.0464" width="1428.48" x="230.4" y="112.8384"/>
  </clipPath>
 </defs>
</svg>
